<?xml version="1.0" encoding="utf-8"?>
<!-- Generator: Adobe Illustrator 24.1.0, SVG Export Plug-In . SVG Version: 6.00 Build 0)  -->
<svg version="1.1" id="Layer_1" xmlns="http://www.w3.org/2000/svg" xmlns:xlink="http://www.w3.org/1999/xlink" x="0px" y="0px"
	 viewBox="0 0 595.23 631.14" style="enable-background:new 0 0 595.23 631.14;" xml:space="preserve">
<style type="text/css">
	.st0{fill:#B2ECFB;}
	.st1{fill:#FFFFFF;}
</style>
<g>
	<path class="st0" d="M593.56,329.98c-5.23,165.86-121.66,281.51-284,293.1C157.83,633.91-14.82,524.18,1.01,355.63
		C16.28,193.05,113.44,5.63,308.75,2.21C459.65-0.42,599.27,148.95,593.56,329.98z"/>
	<path class="st1" d="M475.64,508.11l-11.84-8.09l-3.21-2.29c-2.23,0.96-4.63,1.49-7.06,1.49c-7.83,0-14.14-4.81-16.99-11.47
		c-0.9-1.7-1.58-3.54-1.98-5.48c-2.97-1.35-5.5-3.46-7.38-6.1c-0.65,0.06-1.31,0.09-1.99,0.07h-3.83c-2.65-0.01-5.15-0.54-7.51-1.59
		l-14.64,4.82l-7.52-8.69c-0.58,0.06-1.15,0.09-1.73,0.09c-3.53,0-6.75-1-9.48-2.68c-1.16,0.24-2.35,0.38-3.54,0.38
		c-0.85,0-1.67-0.08-2.48-0.18l-5.16,5.57c-0.88,5.22-4.33,9.77-8.85,12.52c-2.22,7.67-9.95,13.5-17.98,13.5
		c-2.49,0-4.81-0.5-6.93-1.37c-0.9,0.88-2.16,1.45-3.79,1.45c-3.17,0-4.96-2.14-5.37-4.56c-1.8-1.8-2.11-4.87-0.92-7.1
		c-0.92-2.18-1.49-4.56-1.6-7.03c-0.06-1.23,0.04-2.44,0.26-3.62l-9.43-9.49l-0.62-1.06c-1.48,0.4-3,0.61-4.54,0.61
		c-0.79,0-1.56-0.06-2.32-0.16c-0.75,0.1-1.52,0.16-2.28,0.16c-1.44,0-2.82-0.18-4.14-0.48c-1.57,1.51-3.76,2.49-6.58,2.49
		c-1.02,0-1.95-0.13-2.81-0.37c-0.81,0.87-1.94,1.49-3.38,1.64c-0.18,2.21-1.68,4.29-4.53,4.29c-5.45,0-6.01-7.53-1.73-9.14
		c-0.34-2.41,0.62-5.04,2.91-6.19c-0.02-2.45,0.73-4.9,2.26-6.77c-0.33-1.32-0.54-2.68-0.61-4.08c-0.14-3.05,0.63-5.97,2.04-8.55
		c-0.28-1.2-0.45-2.44-0.51-3.71c-0.01-0.14,0-0.29-0.01-0.43c-2.56-1.4-4.73-3.4-6.39-5.79l-6.27,3.32l-1.39-0.32
		c-3.55,3.95-8.74,6.51-14.05,6.51c-3.32,0-6.37-0.87-9-2.38c-0.64-0.29-1.26-0.61-1.85-0.97c-6.67-1.17-11.86-5.94-14.15-12.13
		l-0.22-0.05c0,0-9.69-10.01-8.05-24.62c-1.04-2.11-1.52-4.38-1.42-6.8v-2.3c0.01-3.36,0.86-6.49,2.54-9.39
		c0.33-0.43,0.67-0.86,1-1.3c1.4-5.58,5.72-10.25,11.01-12.53c3.31-4.78,8.87-8.09,14.69-8.39c2.99-1.94,6.49-3.09,10.05-3.09
		c2.45,0,4.74,0.49,6.84,1.34c1.27-0.31,2.57-0.51,3.89-0.57c10.23-0.46,18.36,8.89,18.61,18.61c0.01,0.36,0.01,0.65,0.01,0.89
		c0.28,1.17,0.51,2.36,0.82,3.52c0.72,2.73,1.63,5.42,2.63,8.06c0.23,0.6,0.49,1.21,0.68,1.66c0.11,0.23,0.18,0.39,0.23,0.5
		c0.48,1.03,0.96,2.05,1.47,3.07c1.17,2.28,2.44,4.49,3.88,6.61c0.81,1.19,1.42,2.45,1.85,3.73c1.18,0.65,2.28,1.44,3.29,2.33
		l10.62,3.79l3.62-15.27c-1.01-2.55-1.61-5.31-1.74-8.16c0-0.04,0-0.08,0-0.13c-3.17-3.98-5.12-9.02-5.36-14.43
		c-0.27-6.04,2.32-11.64,6.44-15.8c0.42-0.65,0.86-1.29,1.34-1.89c-0.05-0.48-0.1-0.97-0.12-1.46c-0.34-7.54,3.78-14.39,9.76-18.62
		c0.64-0.73,1.93-1.57,3.64-2.47c4.38-5.31,11.1-8.79,17.99-8.79c1.35,0,2.67,0.12,3.94,0.35c2.4-0.78,3.97-1.26,3.97-1.26
		l5.91-6.13c2.2-5.24,6.5-9.59,11.66-12.09l2.51-2.6c0,0,7.78-10.81,14.14-22.95c-1.49-2.11-2.61-4.41-3.02-6.65
		c-0.06-0.31-0.13-0.62-0.19-0.92c-0.09-0.07-0.16-0.16-0.25-0.23c0.08,0.06,0.16,0.12,0.24,0.18c0,0,0,0,0,0
		c-1.51-1.34-2.83-2.78-3.97-4.36c-0.75-0.25-1.49-0.69-2.19-1.36c-2.34-2.28-5.44-4.29-8.22-5.44c-0.62-0.26-1.2-0.58-1.72-0.96
		c-1.2,0.55-2.35,0.61-3.39,0.33c-0.57,0.45-1.15,0.91-1.72,1.38l-3.02,4.53c-1.07,1.61-2.78,2.39-4.55,2.17
		c-0.13,0.63-0.43,1.24-0.88,1.71c-0.05,0.05-0.09,0.1-0.13,0.14c-0.01,0.01-0.01,0.02-0.02,0.04c-0.17,0.3-0.37,0.59-0.54,0.89
		c-0.38,0.68-0.73,1.38-1.08,2.08c-0.63,1.25-2.03,1.74-3.33,1.57c0.78,1.78-0.09,4.35-2.62,4.35c-1.04,0-1.8-0.44-2.28-1.08
		c-2.64,2.53-5.07,4.91-7.15,7l7.01-7.21c-1.1-1.77-0.29-4.73,2.43-4.73c0.05,0,0.1,0.01,0.15,0.02c-0.51-1-0.49-2.26,0.02-3.29
		c0.79-1.59,1.59-3.2,2.82-4.51c0.47-0.5,1.05-0.78,1.67-0.9c-0.14-1.01,0.01-2.05,0.57-2.88c1.53-2.3,3.06-4.6,4.6-6.89
		c0.99-1.49,2.54-2.28,4.16-2.21c0.4-1.01,1.14-1.94,2.3-2.66c3.48-2.15,6.41-4.98,9.58-7.54c1.79-1.45,4.09-2.05,6.12-1.26
		l16.65-21.19c0,0,0.04-0.08,0.11-0.21c-0.78-2.97-1.66-5.93-2.67-8.86c-0.23-0.49-0.46-0.98-0.71-1.47
		c-0.64-1.26-1.32-2.49-2.03-3.71c-0.99-1.69-2.06-3.34-3.18-4.95c-0.28-0.4-0.57-0.79-0.86-1.18c-0.12-0.15-0.25-0.3-0.4-0.49
		c-1.11-1.36-2.09-2.77-2.92-4.21c-5.38-0.73-10.03-3.33-13.48-7.1c-7.02-1.35-12.69-5.94-15.87-12.08
		c-2.93-2.59-5.21-5.93-6.6-9.69c-4.98-4.25-8.13-10.64-8.45-17.64c-0.13-2.83,0.38-5.56,1.37-8.09l-8.94-11.06l-5.01,3.4
		c-1.47,4.24-3.44,8.38-5.03,12.34c-1.7,4.2-3.43,8.41-4.73,12.76c-0.4,1.34-0.89,2.94-1.06,4.17c-0.06,0.42-0.05,0.84-0.04,1.26
		c1.28,1.79,1.28,3.54,0.54,4.97c2.04,2.2,2.55,5.63,1.55,8.46c2.9,2,3.07,6.74,0.52,9.07c0.09,0.32,0.16,0.64,0.2,0.97
		c1.97,3.34,0.42,8.8-4.64,8.8c-3.3,0-5.1-2.31-5.42-4.85c-0.73-1.24-0.97-2.78-0.73-4.21c-0.6-0.72-1.02-1.58-1.25-2.5l-0.14,0.55
		l-18.36-24.26c-1.45-0.54-2.78-1.57-3.8-3.24c-9.91-16.3-5.72-39.41,2.65-55.49c0.04-0.08,0.09-0.15,0.13-0.23l0.07-2.42l7-7.79
		c3.43-4.23,7.04-8.33,9.8-13.06c5.38-9.23,6.04-20.25,8.68-30.4c0.11-0.43,0.26-0.83,0.42-1.21c-2.17-3.56-1.37-8.95,2.4-11.16
		c0.66-1.85,1.96-3.44,3.93-4.25l0.02-0.5c-0.49,0.09-1.01,0.15-1.57,0.15c-2.11,0-3.77-0.7-4.99-1.79l-12.03,4.45
		c-0.1,1.96-0.85,3.87-2.23,5.25c2.01,4.6-0.25,11.23-6.79,11.23c-1.33,0-2.47-0.28-3.45-0.75c-0.97,0.47-2.12,0.75-3.44,0.75
		c-1.47,0-2.72-0.34-3.75-0.91c-1.21,1.88-3.28,3.21-6.2,3.21c-0.32,0-0.63-0.02-0.93-0.05c-0.03,3.86-2.52,7.71-7.5,7.71
		c-2.15,0-3.83-0.72-5.06-1.84l-9.02-2.47l-15.8,19.52l-5.2-3.03c-2.78-0.12-5.39-1.05-7.59-2.57c-2.59,4.26-7.27,7.2-12.48,7.2
		c-1.17,0-2.31-0.16-3.41-0.44c-1.27,0.39-2.57,0.66-3.89,0.76c-1.11,0.28-2.25,0.44-3.43,0.44c-6.19,0-11.61-4.08-13.7-9.64
		c-2.48-0.78-4.71-2.08-6.58-3.78l-23.99-5.61l-22.44,8.23l-15.49,17.34c3.11,3.28,5.05,7.72,5.26,12.54
		c0.37,8.32-6.16,15.56-13.95,17.52c-0.04,0.02-0.08,0.04-0.13,0.06c-2.22,2.06-4.93,3.6-7.84,4.42c-2.76,1.95-5.88,3.4-9.16,4.17
		c-2.93,2.4-6.36,4.22-10,5.19c-0.11,1.84-0.45,3.63-1.01,5.35c1.87,0.45,3.64,1.11,5.31,1.96l32.44-13.87
		c3.13-2.23,6.72-3.8,10.48-4.48l1.98-0.85c0,0,0.45,0.17,1.23,0.49c0.31-0.01,0.63-0.03,0.94-0.03c8.35,0,15.43,4.03,19.95,10.14
		c1.6,1.18,3.05,2.55,4.34,4.07c7.7,3.97,12.95,11.89,13.88,20.94c2.33,3.85,3.74,8.34,3.95,13.09c0.19,4.34-0.96,8.47-3.03,12.08
		c3.8,10.36,8.1,16.34,2.45,24.51c-6.89,9.96-25.79,35.99-25.79,35.99l-5.23,26.18l4.5,27.7l17.14,26.38l-5.95,25.46
		c0.5,1.24,0.65,2.66,0.44,4.11c-0.98,6.78-1.17,13.73-0.43,20.56l15.24,29.27l-2.82-20.79l-0.04-20.15l0.39-1.81
		c-1.01-2.5-0.47-5.68,1.62-7.44l0.66-3.05l1.58,1.92c0.49-0.12,1.02-0.19,1.6-0.19c5.12,0,6.93,5.11,5.46,8.75l7.47,9.04
		l-0.35,4.15c4.62,3.07,4.23,11.24-1.13,13.48l-0.75,8.88l3.75,6.7c3.3,0.52,6.23,2.93,6.18,7.25c-0.01,1.18-0.06,2.36-0.14,3.54
		l0.52,0.93l-0.83,2.33c-0.41,3.31-1.1,6.59-2.12,9.78c-0.52,1.62-1.51,2.99-2.77,3.98l-1.22,3.43c0.63,0.54,1.2,1.21,1.69,2.05
		c3.7,6.31,10.08,9.01,15.65,13.35c5.49,4.28,7.82,10.74,12.57,15.56c4.57,4.63,10.99,5.99,16.55,9.06
		c7.46,4.13,13.91,10.08,20.67,15.21c1.18,0.89,2.16,1.99,2.83,3.22l2.9,1.87l23.26,30.51l29.54,3.88l8.46-2.92
		c0.91-1.16,2.32-1.94,4.24-1.94c4.12,0,5.91,3.61,5.38,6.75l0.18,0.21l-0.36,0.55c-0.31,1.04-0.9,1.99-1.76,2.68l-12.66,19.28
		l-12.3,34.42l19.84,26.11c3.26,1.29,4.1,5.46,2.54,8.27c0.03,2.62-1.51,5.26-4.61,5.67l-0.47,2.76l51.22-10.37l72.56-29.35
		l16.77-20.21l11.48-28.23V523.9C480.87,521.29,476.46,515.19,475.64,508.11z"/>
	<circle class="st1" cx="29.81" cy="289.16" r="6.66"/>
	<path class="st1" d="M471.52,63.55c18.54-20.3-51.52-35.57-72.91-44.21c-7.19-2.9-11.65,20.09-20.31,35.64
		c-8.43,15.13,0.85,19.16,4.84,24c0.85,1.03,17.14,15.53,36.28,29.74c8.89,1.66,17.46,4.85,25.74,8.45
		c9.35,4.07,19.54,9.04,26.45,16.76c0.78,0.88,1.18,1.83,1.29,2.77c1.19-0.02,2.3-0.18,3.29-0.48
		C497.18,129.8,431.31,107.59,471.52,63.55z"/>
	<g>
		<path d="M331.31,631.14c-0.08-0.23-0.28-0.6-0.22-0.66c2.52-2.17,1.97-5.87,4.09-8.23c0.4-0.44,0.92-0.52,1.84-0.42
			c-2.27-0.8-4.05,0.02-5.87,0.12c-9.37,0.54-18.74,1.12-28.11,1.52c-10.36,0.44-20.65-0.99-30.98-1.31
			c-7.8-0.24-15.47-1.62-23.2-2.26c-10.07-0.83-20.08-2.13-30.1-3.3c-7.5-0.88-14.73-3.21-21.95-5.33
			c-7.99-2.34-16.12-4.26-23.76-7.68c-7.24-3.24-14.62-6.15-21.75-9.67c-7.55-3.72-15.01-7.59-22.41-11.57
			c-5.92-3.18-11.32-7.21-16.71-11.22c-6.7-4.97-13.38-9.98-19.97-15.09c-4.05-3.14-7.73-6.72-11.31-10.41
			c-5.35-5.52-10.96-10.83-15.44-17.09c-5.65-7.88-11.68-15.46-17.54-23.17c-7.24-9.53-13.55-19.6-18.76-30.36
			c-4.02-8.29-8.01-16.62-10.93-25.36c-4.01-12-7.81-24.1-10.49-36.48c-2.18-10.03-4.3-20.09-5.23-30.33
			c-0.82-9.02-1.54-18.06-1.48-27.14c0.02-3.44-0.45-6.89-0.36-10.33c0.22-8.96,0.6-17.91,1.97-26.79c1.17-7.6,2.42-15.17,4-22.7
			c1.75-8.31,3.97-16.48,6.35-24.61c2.02-6.92,4.6-13.67,6.91-20.5c3.56-10.57,8.18-20.73,12.18-31.12
			c3.71-9.63,7.71-19.14,12.12-28.44c4.66-9.81,9.46-19.6,14.95-28.99c5.44-9.3,10.82-18.64,17.21-27.36
			c5.43-7.42,10.44-15.16,15.99-22.49c5.41-7.14,11.21-13.99,17.03-20.81c5.3-6.21,10.91-12.1,16.63-17.89
			c4.56-4.62,9.74-8.57,14.77-12.67c7.15-5.83,14.45-11.43,22.42-16.08c6.58-3.84,13.37-7.3,20.08-10.88
			c7.73-4.12,15.6-7.91,23.86-10.8c13.33-4.67,26.68-9.32,40.68-11.67c1.2-0.2,2.32-0.59,3.42-1.1c9.41-4.33,19.33-6.69,29.62-7.72
			c5.59-0.56,11.18-1.25,16.73-2.13c8.31-1.3,16.54-0.4,24.69,0.91c5.96,0.96,11.94,1.48,17.91,2.14c4.7,0.51,9.5,0.48,14.08,1.48
			c6.27,1.37,12.72,1.92,18.86,3.7c10.22,2.96,20.47,5.95,30.32,9.98c7.04,2.88,13.73,6.58,20.73,9.57
			c4.37,1.87,8.41,4.29,12.43,6.72c4.04,2.44,7.65,5.57,11.65,8.07c5.07,3.16,9.15,7.57,14.05,10.87
			c7.47,5.03,14.41,10.74,21.1,16.66c7.69,6.8,15.33,13.72,22.23,21.45c5.09,5.71,10.06,11.56,15.29,17.16
			c5.18,5.55,9.33,11.96,13.82,18.09c3.41,4.66,6.32,9.65,9.53,14.44c3.55,5.29,6.64,10.92,9.69,16.55
			c2.55,4.71,4.68,9.65,7.5,14.24c1.32,2.14,1.77,4.8,2.8,7.14c6.16,13.86,11.41,28.04,15.67,42.6c2.04,6.97,3.69,14.04,6.07,20.91
			c1.31,3.77,1.38,7.87,2.29,11.78c2.76,11.86,4.03,23.96,5.26,36.03c0.9,8.81,1.58,17.68,1.67,26.53
			c0.08,9.11-0.03,18.23-0.77,27.35c-0.76,9.36-2.15,18.61-3.54,27.87c-0.31,2.05-0.79,4.08-1.28,6.09
			c-1.85,7.63-3.66,15.26-5.63,22.86c-1.32,5.08-3.11,10.02-4.7,15.02c-2.79,8.78-6.15,17.34-9.47,25.9
			c-2.75,7.08-5.89,14.02-9.34,20.81c-2.28,4.49-4.37,9.09-6.77,13.51c-3.78,6.95-8.08,13.61-12.1,20.42
			c-5.83,9.88-12.87,18.92-19.39,28.31c-4.32,6.21-9.07,12.2-14.45,17.64c-6.85,6.93-13.49,14.11-20.97,20.34
			c-8.61,7.17-17.74,13.58-27.82,18.73c-8.84,4.52-17.9,8.51-26.91,12.62c-7.87,3.58-15.93,6.78-23.99,9.96
			c-4.1,1.62-8.27,3.09-12.45,4.31c-9.07,2.64-18.33,4.61-27.51,6.88c-5.83,1.45-11.71,2.59-17.68,3.36
			c-2.55,0.33-5.11,0.45-7.66,0.8c-3.46,0.48-5.67,2.32-6.62,5.4c-0.67,2.18-2.14,3.62-3.41,5.29
			C332.28,631.14,331.8,631.14,331.31,631.14z M340.8,618.58c3.79-1.55,7.04-2.12,10.2-2.98c4.72-1.29,9.49-3.72,14.62-1.31
			c0.43,0.2,1.11-0.02,1.65-0.15c4.76-1.14,9.52-2.27,14.26-3.47c8.38-2.12,16.87-3.86,24.88-7.3c11.1-4.76,22.58-8.67,33.35-14.19
			c5.62-2.88,11.8-4.57,17.1-8.09c2.08-1.38,4.41-2.24,6.47-3.69c3.98-2.8,6.65-6.68,9.3-10.59c3.04-4.47,6.47-8.66,7.57-14.27
			c0.67-3.43,2.04-6.77,3.21-10.11c1.36-3.88,1.69-8.2,1.47-12.39c-0.16-3.01-0.36-6.06-3.26-8.24c-1.41-1.06-3.35-1.89-4.03-3.63
			c-1.33-3.4-3.37-6.3-5.51-9.2c-4.01-5.46-9.69-8.1-16.08-8.22c-4.19-0.08-8.22,0.33-12.09-1.67c-2.69-1.39-5.88-2.24-6.64-5.72
			c-2.84-13.03-11.49-14.78-22.14-15.94c-3.28-0.36-6.52,0.81-9.55,2.15c-2.2,0.98-4.38,1.11-6.4-0.11
			c-2.53-1.53-5.32-2.73-7.39-4.92c-2.91-3.09-6.83-3.99-10.66-4.49c-3.84-0.5-7.82,0.05-10.09,3.94c-0.89,1.53-1.94,2.91-2.96,4.33
			c-3.96,5.54-6.67,11.85-10.66,17.38c-1.44,2-2.91,3.31-5.54,2.84c-1.23-0.22-2.69-0.23-2.42-1.89c0.22-1.41,1.74-1.52,2.75-1.14
			c1.67,0.64,2.64-0.11,3.46-1.27c2.56-3.6,5.22-7.14,7.26-11.07c2.3-4.45,5.53-8.27,8.24-12.43c0.49-0.75,1.29-1.17,2.03-1.66
			c4.4-2.95,14.8-1.02,18.76,2.64c1.36,1.25,2.84,2.37,4.32,3.47c2.47,1.84,5,2.67,8.27,1.74c5.35-1.52,10.67-2.57,16.49-1.28
			c8.52,1.89,14.92,5.91,17.5,14.41c0.93,3.06,2.22,5.15,5.09,6.3c2.66,1.07,5.27,2.92,8.23,2.22c4.24-1,8.06,0.07,11.94,1.45
			c3.35,1.19,6.49,2.68,8.52,5.75c2.2,3.33,5.72,5.82,6.49,10.1c0.17,0.92,1.02,1.46,1.72,1.95c3.77,2.67,6.5,5.68,6.91,10.79
			c0.15,1.9-0.17,3.7-0.22,5.48c-0.07,2.56-0.66,5.3-1.79,7.59c-1.61,3.25-2.66,6.81-3.21,10.12c-0.54,3.25-2.03,5.81-3.26,8.55
			c-1.77,3.94-4.52,7.32-7.36,10.58c-0.34,0.39-0.87,0.95-0.38,1.46c0.45,0.47,1.17,0.15,1.53-0.2c1.44-1.43,3.42-2.17,4.82-3.54
			c5.63-5.48,12.41-9.59,17.8-15.35c4.54-4.85,9.88-8.93,14.1-14.1c5.42-6.63,10.74-13.34,15.63-20.39
			c4.01-5.78,8.72-11.14,12.25-17.19c4.89-8.39,10.21-16.52,14.81-25.07c5.27-9.79,9.92-19.88,14.23-30.15
			c3.41-8.13,6.62-16.32,9.55-24.63c1.47-4.17,1.6-6.59,0.56-11.18c-0.17-0.75,0.6-0.85,0.98-1.19c0.8-0.72,1.75-1.12,2.26-2.33
			c4.3-10.27,6.78-21.08,9.06-31.88c2.64-12.53,4.09-25.31,4.57-38.13c0.4-10.57,0.34-21.13-0.38-31.71
			c-0.54-8.06-1.07-16.11-2.13-24.11c-1.23-9.3-1.89-18.69-4.55-27.75c-0.73-2.5-0.38-5.18-1.17-7.59
			c-3.32-10.13-5.55-20.58-8.95-30.67c-2.45-7.26-5.32-14.38-7.89-21.6c-2.24-6.27-5.1-12.28-7.59-18.45
			c-2.06-5.09-5.27-9.71-7.66-14.68c-4.28-8.89-10.16-16.79-15.24-25.19c-2.62-4.33-6-8.11-8.65-12.4c-2.7-4.37-5.98-8.4-9.42-12.06
			c-4.39-4.66-8.32-9.71-12.77-14.32c-6.41-6.62-12.63-13.37-19.66-19.39c-5.26-4.51-10.51-9.06-15.77-13.58
			c-0.5-0.43-1-1.35-1.8-0.86c-0.84,0.51-0.53,1.54-0.23,2.19c0.46,1,0.23,1.77-0.11,2.72c-0.85,2.34-1.72,4.61-3.52,6.47
			c-1.39,1.44-2.39,3.16-3.04,5.13c-0.73,2.19-1.45,4.4-2.79,6.36c-1.84,2.69-2.15,5.57-0.92,8.69c1.61,4.08,3.21,8.17,4,12.54
			c0.9,4.99,3.93,8.41,8.46,10.69c2.89,1.46,5.4,3.48,6.77,6.59c0.45,1.03,0.78,2.12,1.35,3.08c1.4,2.37,1.39,5.2-0.21,7.4
			c-0.8,1.09-1.84,1.74-3.28,1.67c-1.78-0.08-3.29-0.32-4.7-1.82c-2.36-2.5-5.87-3.49-8.37-6c-3.56-3.58-7.86-5.88-12.96-6.83
			c-5.46-1.02-10.59-3.15-15.44-5.89c-7.7-4.35-15.7-8.02-24.13-10.77c-3.4-1.11-6.57-3.17-8.34-6.23
			c-4.74-8.22-11.77-14.07-19.11-19.69c-1.96-1.49-4.02-2.91-5.71-4.67c-2.3-2.4-1.89-5.61-1.83-8.62c0.01-0.64,0.18-1.72,1.01-1.61
			c0.95,0.13,0.6,1.06,0.46,1.78c-0.65,3.29-0.02,6.25,2.77,8.3c4.27,3.13,8.32,6.51,12.39,9.89c3.92,3.25,7.2,7.1,9.94,11.29
			c2.7,4.13,6.1,6.96,10.75,8.31c6.74,1.97,12.93,5.2,19.15,8.31c5.16,2.59,10.04,5.85,15.78,6.98c5.85,1.15,11.39,2.75,15.58,7.28
			c2.71,2.93,6.5,4.34,9.47,6.89c0.88,0.76,1.96,1.04,3.14,0.99c1.13-0.05,1.65-3.51,2.17-4.56c0.55-1.11,0.84,0.89,0,0
			c-0.59-0.62-0.73-1.36-1.06-2.07c-1.02-2.23-1.32-5.04-3.66-6.32c-1.91-1.05-3.66-2.32-5.4-3.56c-2.69-1.91-4.62-4.52-5.68-7.81
			c-1.3-4.03-1.61-8.31-3.65-12.17c-2.25-4.26-2.48-8.79,0.07-13.12c0.87-1.47,1.48-3,2.02-4.59c0.84-2.45,1.85-4.89,3.58-6.77
			c2.67-2.93,3.55-6.34,3.85-10.13c0.11-1.38-0.1-2.35-1.21-3.11c-1.65-1.14-3.34-2.23-4.96-3.4c-4.93-3.59-9.27-7.9-14.43-11.23
			C440.16,40.4,433.12,34.84,424.9,31c-8.69-4.06-17.32-8.27-26.28-11.66c-10.03-3.79-20.15-7.45-30.82-9.22
			c-8.2-1.36-16.32-3.17-24.64-3.97c-4.79-0.46-9.62-0.51-14.39-1.28c-6.64-1.08-13.31-1.93-20.02-2.57
			c-4.9-0.46-9.51,0.51-14.24,0.98c-11.48,1.14-22.92,2.59-34.15,5.33c-0.51,0.12-1.16,0.11-1.35,0.84
			c0.74,0.46,1.56,0.22,2.34,0.24c3.88,0.11,7.36,1.53,10.76,3.2c0.66,0.33,1.64,0.93,1.13,1.82c-0.49,0.85-1.33,0.08-1.89-0.24
			c-1.1-0.62-2.05-1.74-3.2-2.01c-5.72-1.35-11.44-1.46-17.13,0.37c-4.59,1.47-7.98,4.68-11.52,7.69c-0.55,0.47-0.95,1.28-2.1,1.02
			c2.4-2.92,5.07-5.26,8.09-7.23c-0.61-0.69-1.2-0.54-1.69-0.32c-2.83,1.28-5.95,1.31-8.87,2.17c-5.84,1.72-11.67,3.48-17.44,5.41
			c-6.68,2.24-13.35,4.54-19.85,7.3c-9.97,4.23-19.25,9.8-28.88,14.67c-8.63,4.36-16.38,10.17-23.91,16.12
			c-6.7,5.3-13.37,10.69-19.45,16.79c-7.47,7.48-14.26,15.54-21.11,23.55c-6.04,7.06-11.55,14.54-16.92,22.13
			c-4.95,6.99-10.31,13.72-14.88,20.94c-4.94,7.79-9.71,15.71-14.04,23.88c-2.99,5.64-6.11,11.21-8.89,16.97
			c-2.79,5.79-6.05,11.4-8.35,17.38c-2.37,6.17-5.47,12.01-7.47,18.35c-2.13,6.77-5.32,13.18-7.88,19.81
			c-2.57,6.65-5.04,13.32-7.3,20.08c-0.66,1.99-1.48,3.85-1.55,6.11c-0.04,1.18-1.58,2.79-2.02,4.39
			c-2.57,9.22-5.38,18.37-7.19,27.8c-1.45,7.54-2.86,15.08-3.82,22.69c-0.55,4.36-1.19,8.72-1.38,13.1
			c-0.34,7.99-0.41,15.97-0.07,23.99c0.42,9.91,0.78,19.82,2.11,29.65c1.31,9.68,3.19,19.28,5.42,28.77
			c1.92,8.17,4.48,16.2,6.98,24.22c3.02,9.69,6.69,19.11,11.17,28.28c4.66,9.53,9.56,18.81,15.52,27.62
			c6.58,9.71,14.46,18.41,21.01,28.11c4.01,5.93,8.96,11.08,13.97,16.14c5.12,5.17,10.11,10.48,15.97,14.89
			c5.45,4.1,10.99,8.09,16.43,12.18c7.32,5.51,14.77,10.71,22.88,14.98c7.93,4.18,15.78,8.51,23.95,12.2
			c5.85,2.64,11.66,5.42,17.71,7.52c5.51,1.92,11.05,3.82,16.7,5.4c9.27,2.58,18.46,5.53,28.02,6.78
			c10.99,1.43,22.02,2.5,33.03,3.71c4.78,0.52,9.56,1.1,14.36,1.45c6.89,0.5,13.79,0.84,20.68,1.19c4.65,0.24,9.3,0.64,13.94,0.53
			c5.84-0.15,11.67-1.04,17.5-1.07c5.65-0.04,11.2-0.83,16.8-1.27c2.14-0.17,3.13-1.98,3.01-3.36c-0.53-6.27-1.1-12.57-7.41-16.48
			c-1.41-0.88-3.07-1.5-4.36-2.8c-3.11-3.14-5.37-6.86-7.53-10.62c-2.26-3.94-3.59-8.21-2.72-12.89c0.46-2.44,0.9-4.88,1.22-7.33
			c0.8-6.26,3.9-11.65,6.69-17.07c2.14-4.16,5.48-7.65,7.74-11.82c0.91-1.68,2.23-3.12,3.38-4.65c1.41-1.87,3.62-3.63,2.66-6.56
			c-0.12-0.36-0.07-0.85,0.34-1.06c0.6-0.3,0.82,0.25,1.13,0.6c1.44,1.65,2.19-0.93,3.6-0.6c0.86,0.2,0.56-1.1,0.49-1.75
			c-0.62-5.66-6.33-8.09-11.32-5.23c-4.22,2.42-8.75,4.36-13.87,3.98c-1.6-0.12-3.16-0.45-4.75-0.62c-6.1-0.65-12.36-0.79-17.86-4.1
			c-0.56-0.34-1.68-0.37-1.34-1.34c0.37-1.06,1.4-0.58,2.1-0.34c1.66,0.57,3.08,1.66,4.88,1.98c4.82,0.87,9.73,1.09,14.54,1.86
			c5.89,0.94,10.9-0.97,15.71-3.78c3.08-1.79,8.67-1.27,11.12,1.29c2.38,2.48,2.94,5.64,3.44,8.8c0.25,1.59-3.04,5.66-4.45,5.35
			c-4.08-0.92-5.25,2.39-6.61,4.69c-2.01,3.4-4.29,6.64-6.37,9.98c-2.48,3.97-5,7.88-6.86,12.19c-1.63,3.78-2.01,7.9-3.07,11.81
			c-2.68,9.91,2.08,17.15,7.82,24.17c1.81,2.22,4.68,2.97,6.81,4.78c3.81,3.24,6.13,7.29,6.49,12.24
			C341.57,612.78,342.91,615.42,340.8,618.58z"/>
		<path d="M352.4,279.1c1.97-1.69,3.97-3.35,5.9-5.09c2.16-1.95,3.94-4.29,6.69-5.62c2.15-1.04,3.45-3.19,4.43-5.24
			c1.09-2.28,3.2-3.56,4.55-5.55c0.6-0.88,1.76-0.68,2.6-0.03c1.94,1.49,4.38,2.05,6.38,3.35c5.25,3.4,10.26,7.26,13.17,12.93
			c1.26,2.45,0.75,5.75-0.13,8.26c-1.36,3.86-2.17,7.99-4.65,11.45c-1.38,1.92-2.93,3.54-4.84,4.91
			c-5.14,3.68-10.65,6.88-15.06,11.53c-0.95,1-1.9,1.97-2.33,3.31c-1.16,3.62-3.49,6.34-6.49,8.6c-1.51,1.14-3.12,1.54-4.97,1.3
			c-1.83-0.24-3.67-0.38-5.5-0.6c-1.44-0.18-2.94,0.1-3.83,1.09c-3.11,3.47-7.51,4.83-11.25,7.27c-5.18,3.39-8.45,8.47-11.83,13.39
			c-0.93,1.35-1.37,3.3-1.29,5.2c0.09,2.13-0.61,4.2-1.66,5.96c-2.03,3.41-1.99,7.54-4.05,10.92c-0.36,0.59-0.5,1.35-0.99,1.89
			c-3.64,3.99-2.33,8.12-0.33,12.24c0.8,1.66,1.97,2.96,3.41,4.22c2.14,1.86,1.81,4.8,1.85,7.37c0.07,4.77,0.94,9.65-1.83,14.09
			c-0.68,1.08,0.42,3-1.22,3.59c-1.27,0.46-2.67-0.23-4.01-0.37c-6.36-0.7-9.89-5-12.48-10.09c-3.27-6.42-6.33-12.93-10.19-19.04
			c-1.28-2.02-0.93-4.52-1.3-6.79c-0.33-2.04-0.37-4.13-0.59-6.2c-0.19-1.83-1.47-4.17-2.36-4.47c-4.41-1.5-7.47-5.59-12.3-6.12
			c-2.2-0.24-4.31,0.34-6.44,0.54c-2.55,0.25-5.04,0.67-7.64,0.52c-3.21-0.19-5.94,1.71-8.85,2.74c-5.46,1.93-10.69,4.31-15.09,8.26
			c-5.95,5.34-9.92,11.5-10.93,19.76c-0.76,6.16-1.68,12.18-0.75,18.38c1.02,6.78,4.38,12.4,8.33,17.77
			c1.46,1.98,2.97,3.94,4.45,5.91c4.65,6.17,10.54,9.42,18.35,8.92c2.41-0.15,4.82-0.24,7.22-0.43c3.51-0.29,6.15-2.06,8-5.01
			c1.47-2.36,3.39-4.46,6.27-4.09c3.71,0.47,6.86,2.45,8.2,6.16c1.68,4.64,1.26,9.42,0.54,14.23c-0.46,3.08-1.92,5.57-3.41,8.18
			c-2.4,4.21-3.63,8.85-4.22,13.65c-0.29,2.31,1.14,3.67,3.51,3.47c0.65-0.05-2.74-7.97,4.28-4.4c0.09,0.74-3.33,5.84-4.1,6.01
			c-2.02,0.45-3.77-0.22-5.48-1.16c-0.93-0.51-0.76-1.26-0.53-2.09c1.2-4.21,1.39-8.69,3.15-12.75c1.02-2.34,2.39-4.54,3.37-6.89
			c2.18-5.23,2.7-10.7,1.45-16.21c-0.44-1.95-1.79-3.62-3.43-4.85c-2.14-1.61-5.09-1.27-6.97,0.7c-0.72,0.75-1.45,1.51-2.06,2.36
			c-1.97,2.76-4.54,4.64-7.95,4.87c-5.48,0.37-10.98,1.57-16.42-0.5c-4.15-1.58-7.54-4-10.32-7.52c-3.77-4.77-7.34-9.66-10.21-15.01
			c-2.19-4.1-3.67-8.41-3.96-13.18c-0.29-4.82-0.4-9.58,0.69-14.28c1.12-4.85,1.14-10.12,4.09-14.36
			c4.92-7.08,10.98-12.93,19.23-16.09c2.17-0.83,4.32-1.73,6.47-2.62c6.4-2.66,13.29-1.69,19.93-2.65c3.58-0.52,6.87,1.58,9.65,3.7
			c2.17,1.66,4.29,3.3,6.76,4.45c1.57,0.73,2.44,1.7,1.13,3.3c-0.58,0.7-0.45,1.4-0.27,2.03c1,3.56,0.22,7.38,1.98,10.89
			c0.75,1.49,1.53,3,2.39,4.39c2.9,4.65,4.64,9.87,7.33,14.59c2.71,4.75,6.05,8.89,12.13,9.55c2,0.21,3.09-0.11,2.98-2.42
			c-0.05-1.16,0.02-2.39,1.1-3.3c0.72-0.61,0.73-1.57,0.69-2.47c-0.14-3.18-0.45-6.36-0.37-9.53c0.08-3.18-2.45-4.75-3.92-6.9
			c-2.44-3.57-3.47-7.49-2.97-11.55c0.29-2.41,2.83-4.24,3.5-6.74c1.68-6.23,5.56-11.72,5.92-18.42c0.13-2.4,1.66-4.52,3.23-6.35
			c2.85-3.33,5.05-7.31,8.77-9.81c2.45-1.65,5.13-2.97,7.76-4.34c1.37-0.71,2.77-1.39,3.71-2.61c1.79-2.33,4.19-2.8,6.88-2.54
			c1.36,0.13,2.71,0.34,4.05,0.59c2.24,0.42,4.29-0.08,5.65-1.86c1.73-2.26,4.6-3.96,4.19-7.47c-0.04-0.3,0.3-0.73,0.58-0.98
			c3.92-3.54,7.73-7.14,12.1-10.21c3.35-2.36,7.01-4.49,9.74-7.73c1.07-1.27,1.69-2.72,2.27-4.21c1.59-4.03,2.71-8.14,2.75-12.54
			c0.03-4.26-3.21-6.25-5.71-8.75c-3.1-3.1-6.87-5.2-10.82-7.03c-2.73-1.27-4.72-1.01-6.11,1.6c-1.2,2.26-2.83,4.2-4.1,6.38
			c-0.3,0.53-0.73,0.82-1.2,1.13c-6.04,4.06-11.71,8.6-16.23,14.33c-2.1,2.67-5.29,3.83-7.45,6.34c-0.75,0.87-1.36,2.03-2.6,2.44
			c-0.54,0.18-1.1,0.48-1.51-0.14c-0.39-0.6-0.04-1.04,0.45-1.42c3.34-2.61,5.57-6.13,7.84-9.62c1.37-2.1,3.55-3.42,5.06-5.44
			c2.34-3.11,3.23-6.81,4.44-10.29c3.4-9.71,10.09-16.36,18.54-21.58c2.47-1.53,4.6-3.49,6.97-5.14c0.33-0.23,0.62-0.61,0.98-0.69
			c6.33-1.39,8.07-7.89,12.6-11.26c3.49-2.59,4.9-6.59,7.12-10.04c0.56-0.87,0.55-1.66,0.3-2.51c-1.91-6.51-4.25-12.77-9.68-17.32
			c-1.32-1.11-2.87-1.8-4.4-2.46c-3.1-1.32-5.9-3.09-8.77-4.82c-2.85-1.72-5.61-3.67-8.58-5.22c-5.18-2.69-9.43-6.59-12.51-11.35
			c-3.43-5.3-7.56-10.14-10.53-15.74c-2.59-4.9-3.68-9.99-1.93-15.43c0.34-1.06,0.19-2.11-0.01-3.1c-0.91-4.38-3.61-7.58-7.08-10.18
			c-1.47-1.1-2.09,0.27-2.47,1.25c-1.04,2.66-1.6,5.48-2.52,8.2c-0.57,1.71-0.9,3.55-1.41,5.32c-0.44,1.51-0.87,3.07-0.51,4.73
			c0.25,1.15-0.18,2.16-0.91,3.12c-2.11,2.77-4.09,5.64-5.83,8.67c-0.55,0.95-0.7,1.77-0.27,2.69c1.78,3.8,1.97,8.1,3.59,11.88
			c1.72,4.01,0.77,8,0.06,11.69c-0.44,2.26-0.94,4.73-1.6,7.05c-0.14,0.48-0.29,0.86-0.81,1.08c-4.51,1.87-9.23,0.16-10.91-4.4
			c-2.16-5.86-4.81-11.5-7.18-17.26c-2.18-5.3-6.55-8.83-10.12-13.01c-2.21-2.59-5.61-3.37-8-5.66c-1.42-1.36-2.58-2.62-2.74-4.82
			c-0.2-2.86-0.96-5.68-1.43-8.53c-1.32-7.99-0.1-15.66,2.99-23.09c1.02-2.46,1.72-4.96,1.77-7.68c0.08-4.92,1.64-9.31,4.53-13.41
			c3.55-5.04,5.81-10.92,9.58-15.82c2.63-3.42,5.69-6.49,7.85-10.29c5.12-9.01,7-18.69,6.27-28.94c-0.14-2.04-1.3-3.75-2.15-5.7
			c18.85-14.97,2.31,0.85,2.72,2.09c1.83,5.63,1.17,11.36,0.33,17.01c-1.43,9.62-5.8,17.87-12.36,25
			c-3.06,3.33-4.67,7.59-7.18,11.28c-1.39,2.04-2.58,4.21-3.98,6.25c-2.77,4.03-3.6,8.68-4.01,13.34c-0.28,3.2-1.21,6.14-2.38,9.01
			c-3.11,7.69-3.62,15.52-1.72,23.56c0.17,0.7,0.33,1.43,0.28,2.14c-0.27,4.18,1.75,7.3,5.14,9.11c5.49,2.93,9.15,7.72,13.22,12.07
			c1.46,1.55,2.43,3.59,3.15,5.8c1.1,3.38,2.75,6.64,4.52,9.74c1.22,2.13,1.35,4.54,2.39,6.7c1.44,2.98,3.61,4.4,6.62,3.94
			c1.01-0.15,2.18-0.53,2.13-1.59c-0.15-3.32,2.14-6.01,2.14-9.28c0-1.61,0.89-3.3-1.09-4.46c-0.32-0.19-0.27-1.04-0.36-1.58
			c-0.59-3.62-0.37-7.44-2.07-10.79c-2.15-4.25-0.19-7.51,2.4-10.44c2.34-2.65,3.39-5.34,3.63-8.99c0.27-4.15,1.95-8.24,3.23-12.28
			c0.58-1.82,0.71-3.78,1.7-5.49c1.4-2.41,2.3-2.49,4.52-0.91c4.42,3.15,6.59,7.78,8.69,12.5c0.59,1.32-0.06,2.36-0.45,3.42
			c-1.72,4.68-0.91,9.22,1.37,13.32c2.3,4.16,5.57,7.78,7.94,11.9c3.2,5.58,7.61,9.99,12.86,13.38c6.16,3.98,12.26,8.09,19.03,11.1
			c5.3,2.36,9.37,6.18,11.77,11.72c1.3,3.01,2.57,6.01,3.53,9.15c0.44,1.46,0.45,2.91-0.11,4.25c-1.79,4.34-4.49,7.94-8.22,10.93
			c-2.26,1.81-3.93,4.38-5.82,6.65c-1.41,1.69-2.9,3.15-5.2,3.63c-0.91,0.19-1.8,0.74-2.55,1.32c-5.96,4.6-12.6,8.28-18.02,13.6
			c-3.37,3.31-4.91,7.63-6.85,11.73c-0.91,1.92-1.35,4.03-1.91,6.08c-0.6,2.17-2.55,3.96-3.9,5.92c-0.13,0.19-0.21,0.41-0.32,0.62
			C352.19,278.84,352.3,278.97,352.4,279.1z M347.69,283.86c1.65-0.69,2.43-2.08,3.14-3.53
			C349.12,280.92,348.08,282.11,347.69,283.86z"/>
		<path d="M168.79,354.82c0.3-3.39,0.58-8.16,0.34-12.76c-0.27-5.35,2.56-9.65,3.08-14.59c0.16-1.51,0.57-2.98,0.82-4.48
			c0.91-5.28-0.95-9.97-3.4-14.41c-0.89-1.61-2.09-3.2-2.4-4.92c-0.85-4.74-4.19-7.69-7.27-10.75c-2.87-2.85-4.45-6.21-5.45-9.97
			c-1.48-5.55-2.69-11.22-2.69-16.93c0-7.66-0.3-15.5,2.75-22.77c3.03-7.21,6.87-14.01,11.23-20.55c1.93-2.9,3.65-6.01,5.26-9.16
			c2-3.89,5.48-6.8,7.92-10.47c1.15-1.73,1.89-3.86,3.35-5.21c4.04-3.75,2.2-7.61,0.23-11.1c-1.6-2.84-1.19-5.55-0.89-8.33
			c0.53-5.01,1.59-9.98,1.97-15c0.39-5.15-0.12-10.24-3.22-14.71c-1.78-2.57-1.93-5.76-3.06-8.58c-0.84-2.11-2.29-3.79-3.57-5.61
			c-4.41-6.3-11.35-9.43-17.23-13.82c-5.17-3.86-11.15-6.72-17.95-4.85c-4.07,1.12-7.88,2.96-11.63,5.09
			c-2.69,1.53-5.59,3.21-8.71,3.89c-1.57,0.34-2.46,1.4-3.67,2.08c-4.91,2.77-10.52,3.34-15.73,5.17c-2.9,1.01-6.35,0.55-9.56,0.54
			c-1.73,0-1.45-1.34-0.76-2.2c0.88-1.08,1.38-2.15,1.79-3.52c0.57-1.92,2.9-2.36,4.51-2.76c4.47-1.12,8.03-3.96,12.12-5.77
			c1.79-0.8,3.55-1.77,5.36-2.61c4.26-1.98,8.02-4.84,12.17-7.06c3.49-1.87,4.71-5.86,6.49-9.25c1.46-2.76,1.93-5.37,0.44-8.21
			c-0.34-0.66-0.71-1.22-1.26-1.72c-2.33-2.15-2.68-3.85-1.42-6.87c2.11-5.08,4.45-10.04,7.42-14.68c0.46-0.72,6.35-5.04,7.22-5.31
			c3.69-1.15-5.26,5.67-5.54,6.09c-0.83,1.25-1.67,2.48-1.74,4.05c-1.86-0.13-2.09,1.51-2.61,2.62c-1.3,2.72-2.72,5.4-3.53,8.33
			c-0.46,1.67-0.3,3,1.18,4.28c2.77,2.4,3.43,6.32,2.12,9.83c-1.46,3.92-4.22,7.08-6.05,10.79c-0.29,0.59-0.81,0.96-1.41,1.26
			c-9.17,4.59-17.91,10.01-27.29,14.2c-1.02,0.46-2.09,0.83-3.08,1.33c-0.92,0.47-1.89,0.95-2.64,1.64c-0.82,0.75-1.7,1.89-1.5,2.88
			c0.25,1.24,1.76,0.69,2.72,0.87c2.2,0.41,4.3,0.06,6.31-0.95c0.78-0.39,1.64-0.73,2.5-0.85c7.31-1.02,13.38-5.15,19.99-7.93
			c4.53-1.91,8.79-4.4,13.38-6.23c4.39-1.76,8.76-1.48,12.93,0.01c4.66,1.67,8.91,4.26,12.74,7.54c2.42,2.07,5.35,3.54,7.82,5.56
			c5.69,4.66,9.59,10.48,11.3,17.77c0.71,3.04,2.77,5.6,3.48,8.78c1.19,5.31,0.69,10.42-0.2,15.68c-0.7,4.11-1.68,8.31-1.21,12.47
			c0.32,2.87,2.3,5.37,2.84,8.35c0.57,3.12,0.71,5.61-1.84,8.3c-4.01,4.22-7.44,9.02-10.89,13.74c-1.64,2.25-2.83,4.83-4.3,7.22
			c-3.74,6.06-7.62,12.04-10.74,18.47c-2.92,6.01-4.28,12.23-4.34,19.02c-0.05,5.4-0.2,10.73,0.88,16.01
			c0.82,4.04,1.15,8.15,2.85,12.07c1.67,3.86,4.6,6.47,7.32,9.32c1.79,1.88,3.99,3.2,3.87,6.36c-0.07,1.84,0.85,3.62,2.04,5.21
			c4.95,6.66,5.18,14.04,3.31,21.8c-0.65,2.72-1.63,5.3-2.54,7.92c-0.63,1.83-0.69,3.93-0.63,5.9c0.16,6.15-0.77,12.29-0.12,18.45
			c0.41,3.89,1.01,7.75,2.22,11.45c0.58,1.77,2.54,2.72,3.71,4.22c1.1,1.41,2.05,2.71,2.58,4.48c1.42,4.71,3.11,9.34,4.7,13.99
			c0.24,0.71,0.61,1.47,1.53,1.08c1.1-0.46,0.7-1.32,0.26-2.01c-3.85-6.09-5.6-12.6-4.61-19.87c0.52-3.86-0.85-7.62-1.41-11.43
			c-1.01-6.91-0.98-13.74,3.55-19.7c0.31-0.4,0.38-0.84,0.49-1.32c0.48-2.21,1.83-3.06,3.82-1.89c2.09,1.23,3.98,2.79,5.05,5.24
			c1.73,3.98,3.82,7.81,4.55,12.16c0.29,1.75,1.69,2.79,2.7,4.02c1.8,2.17,2.27,4.93,3.43,7.36c1.44,3.01,0.55,6.4-1.28,9.12
			c-3.04,4.51-3.35,9.78-0.42,14.3c0.37,0.56,0.8,1.13,1.42,1.23c2.54,0.4,3.05,2.38,3.87,4.36c1.13,2.71,2.59,5.28,3.16,8.21
			c0.28,1.45,0.17,2.7-0.34,4.16c-1.68,4.82-3.85,9.44-5.65,14.2c-1.28,3.4-0.08,6.43,3.41,7.88c6.11,2.53,10.9,6.84,15.97,10.86
			c4.67,3.7,8.21,8.17,11.06,13.29c1.82,3.27,5.4,3.48,8.31,4.87c4.24,2.03,8.78,3.84,12.13,7.02c4.22,4.01,9.23,6.67,13.83,10.01
			c4.21,3.05,7.71,6.84,10.5,11.28c4.08,6.51,8.62,12.67,13.88,18.28c0.64,0.69,1.26,2.41,2.85,1.11c0.27-0.22-0.37,1.42-0.14,1.7
			c0.29,0.36,1.19-0.78,1.02-0.4c1,12.42-2.48,1.58-3.48,0.62c-5.33-5.13-10-10.85-13.87-17.11c-4.82-7.79-11.09-13.84-19.28-17.87
			c-1.75-0.86-3.02-2.31-4.35-3.6c-5.14-4.96-11.29-8.04-17.99-10.13c-2.17-0.68-3.55-2.08-4.75-3.83c-1.89-2.76-2.92-6.1-5.54-8.37
			c-5.66-4.89-10.68-10.53-17.85-13.57c-2.41-1.02-5.04-2.6-6.65-4.94c-2.36-3.43-1.76-7.03,0.14-10.45
			c2.2-3.96,3.31-8.32,4.81-12.54c0.26-0.72,0.09-1.44-0.13-2.13c-0.95-2.9-1.85-5.81-3.34-8.5c-0.4-0.73-0.74-1.48-1.53-1.76
			c-3.86-1.34-4.51-5.16-5.45-8.17c-0.7-2.23-0.27-5.36,1-7.68c1.43-2.61,1.81-5.55,3.19-8.14c0.19-0.36,0.09-0.97-0.05-1.4
			c-1.24-3.66-2.56-7.31-5.21-10.23c-0.98-1.08-1.37-2.23-1.64-3.62c-0.93-4.85-2.6-9.43-5.94-13.2c-1.64-1.85-2.22-1.64-3.85,0.3
			c-2.52,2.99-3.74,6.14-4.05,10.23c-0.29,3.88-0.53,7.47,0.49,11.3c0.82,3.1,1.73,6.51,1.04,9.66c-0.68,3.13-0.42,6.01,0.15,9
			c0.72,3.83,2.75,7.14,4.45,10.56c0.48,0.97,1.26,1.77,0.64,2.78c-0.63,1.01-1.79,0.84-2.86,0.79c-1.13-0.06-2.11-0.31-2.38-1.58
			c-1.07-5.04-3.43-9.65-4.83-14.58c-0.65-2.28-2.19-3.87-3.85-5.38c-2.27-2.07-3.03-4.71-3.64-7.62
			C169.44,364.7,168.77,360.46,168.79,354.82z"/>
		<path d="M142.48,64.68c-1.02,0.17-1.37-1.3-0.39-1.61c5.5-1.76,21.86-6.78,22.83-6.62c6.42,1.03,12.89,2.06,18.85,4.72
			c5.05,2.25,10.74,3.33,14.69,7.8c1.26,1.42,1.94,3.11,3.05,4.58c0.94,1.25,2.07,1.82,3.46,1.71c2.46-0.18,4.8-0.6,7.17-1.66
			c2.76-1.24,5.9-0.16,8.63,0.83c2.54,0.93,4.59,0.81,6.32-1.13c1.87-2.09,4.89-3.58,4.26-7.19c-0.04-0.22,0.22-0.62,0.45-0.74
			c0.46-0.23,0.8,0.17,0.95,0.51c1.65,3.98,5.46,4.45,8.9,5.21c4.47,0.99,8.22-0.99,9.82-5.32c1.89-5.13,5.92-8.47,9.51-12.17
			c1.41-1.46,3.43-1.71,4.86,0.17c3.17,4.19,7.88,4.08,12.36,4.65c0.83,0.1,1.37-0.3,1.71-1.04c0.33-0.73,0.89-1.43,0.98-2.19
			c0.65-5.4,4.53-7.15,9.06-8.3c1.28-0.32,2.33-0.03,3.46,0.5c3.68,1.7,11.29-0.03,14-3.08c1.05-1.19,0.95-2.49,0.59-3.85
			c-0.72-2.75-0.66-4.82,2.05-7.01c3.89-3.15,7.93-5.29,12.89-5.46c1.55-0.05,2.85,0.85,3.76,2.09c-0.22,0.64-0.75,0.72-1.02,0.53
			c-3.48-2.45-6.62-0.68-9.69,0.86c-1.63,0.82-3.16,1.92-4.58,3.08c-1.68,1.38-2.47,3.03-1.75,5.43c1.14,3.81,0.32,5.42-3.57,7.41
			c-3.18,1.63-6.68,2.2-10.23,2.34c-0.62,0.03-1.41,0.02-1.86-0.32c-3.58-2.75-6.53,0.3-9.71,1.03c-0.68,0.16-1.1,1.07-1.12,1.76
			c-0.08,2.49-1.63,4.44-2.24,6.72c-0.32,1.19-1.18,1.02-1.89,0.9c-4.96-0.82-10.39-0.17-14.02-5.01c-1.06-1.41-2.94-1.08-4.01,0.29
			c-1.69,2.16-3.76,3.93-5.49,6.04c-0.87,1.05-1.68,2.14-2.19,3.44c-2.79,7.2-7.84,10.04-14.8,6.95c-4.64-2.06-7.07-1.13-10.06,2.4
			c-2.09,2.47-5.33,3.73-8.71,1.87c-3.13-1.73-6.07-0.37-9.07,0.31c-2.52,0.57-5.04,1.06-7.64,0.58c-1.44-0.27-2.48-0.92-3.06-2.37
			c-1.85-4.62-5.33-7.1-10.02-8.79c-3.65-1.31-7.15-3.12-10.86-4.44c-2.98-1.06-6.16-1.09-9.11-2.1
			C163.24,56.67,149.28,63.54,142.48,64.68z"/>
		<path d="M304.09,470.43c-6.3-0.04-11.32,1.55-16.48,2.13c-0.71,0.08-1.47,0.34-2.12,0.18c-0.93-0.24-2.59-0.33-2.34-1.46
			c0.19-0.84,1.67-2.06,2.85-1.73c4.59,1.29,8.85-0.69,13.26-1.06c6.56-0.56,12.92-0.11,19.19,2.07c2.49,0.87,3.3,2.97,4.15,4.93
			c1.6,3.67,2.59,7.55,3.18,11.54c0.27,1.83-0.74,3.46-0.21,5.38c0.73,2.64,2.24,4.95,2.81,7.65c0.25,1.15,1.37,1.44,2.56,1.03
			c4.78-1.65,9.71-1.93,14.72-1.6c1.34,0.09,2.71-0.23,4.06-0.35c0.52-0.05,2.13-1.87,2.32-1.39c0.24,0.6,1.93,0.78-1.83,3.08
			c-1.06,0.64-2.12,0.72-3.22,0.71c-3.61-0.04-7.2,0.26-10.79,0.64c-1.95,0.2-3.75,0.82-5.58,1.41c-1.59,0.51-2.72,0.13-3.51-1.52
			c-2.53-5.28-4.29-10.58-3.89-16.69c0.26-3.92-1.53-7.84-3.72-11.25c-1.03-1.61-2.94-2.25-4.79-2.5
			C310.86,471.09,306.96,470.73,304.09,470.43z"/>
		<path d="M376.06,65.55c0.46-3.4,1.15-8.11,2.25-10.57c3.2-7.18,6.61-14.27,9.8-21.46c0.54-1.21-0.71-1.7-0.3-2.64
			c1.24-2.87,2.77-5.57,4.79-7.98c0.35-0.42,3.6-5.17,4.05-4.82c0.7,0.53-2.19,5.92-2.48,6.53c-2.34,4.97-4.67,9.95-7.2,14.81
			c-0.71,1.36-0.96,2.83-1.55,4.2c-2.17,5.08-5.6,9.56-7.08,14.96C377.9,60.15,378.2,63.98,376.06,65.55z"/>
		<path d="M31.46,280.56c2.61-0.25,5.01,0.9,6.45,3.48c1.45,2.59,0.61,5.13-0.93,7.45c-2.09,3.14-5.2,4.98-8.62,6.15
			c-3.59,1.23-6.65-1.77-5.8-5.5c0.33-1.47,0.67-2.97,1.74-4.16c1.04-1.16,0.47-2.81,1.39-4.16
			C27.38,281.36,28.13,280.67,31.46,280.56z M29.74,282.5c-1.72,0.2-3.64,0.66-3.44,2.56c0.16,1.45-0.23,2.36-0.83,3.46
			c-0.77,1.41-1.31,2.95-1.4,4.56c-0.11,1.87,0.93,3.13,2.75,2.75c4.38-0.92,8.23-2.77,10.06-7.3c0.9-2.24,0.07-4.27-2.22-4.99
			C33.07,283.03,31.38,282.83,29.74,282.5z"/>
		<path d="M22.45,274.95c0.43,1.38-0.19,2.36-0.4,3.42c-0.16,0.83-0.37,1.35-1.23,1.45c-0.69,0.09-1.28-0.15-1.66-0.73
			c-0.44-0.67-0.3-1.38,0.06-2.04C19.89,275.81,21.1,275.4,22.45,274.95z"/>
		<path d="M17.84,271.79c-0.57-0.85-1.98-1.23-1.37-2.17c0.53-0.82,1.73-0.39,2.79-0.49C18.83,270.16,17.75,270.62,17.84,271.79z"/>
	</g>
	<path d="M475.74,55.5"/>
	<path class="st1" d="M253.61,269.11"/>
</g>
</svg>
