<?xml version="1.0" encoding="utf-8"?>
<!-- Generator: Adobe Illustrator 24.1.0, SVG Export Plug-In . SVG Version: 6.00 Build 0)  -->
<svg version="1.1" id="Layer_1" xmlns="http://www.w3.org/2000/svg" xmlns:xlink="http://www.w3.org/1999/xlink" x="0px" y="0px"
	 viewBox="0 0 266.93 677.98" style="enable-background:new 0 0 266.93 677.98;" xml:space="preserve">
<style type="text/css">
	.st0{fill:#B0E6FA;}
	.st1{fill:#E0AC69;}
</style>
<path class="st0" d="M165.59,249.98c-0.7,2.49-11.86-0.97-15.06-0.51c-8.17,1.17-23.99,14.2-31.91,9.96
	c-10.43-5.59-21.5-1.77-27.83-11.21c-10.82-16.14-25.25-5.73-26.98,0c-5.86,19.31-31.09,21.25-34.03,42.27
	c-0.68,2.2,17.56,46.92,20.16,48.51c6.81,4.14,6.64,31.29,7.89,41.39c6.96,56.33-19.81,94.95,61.27,79.09
	c10.84-2.12,41.77-6.15,51.98-1.73c21.04,9.11,37.26-5.74,29.67-40.98c-5.09-23.61-51.37,1.66-27.23-3.35
	c8.37-1.74,21.46,3.75,23.23-2.56c4.51-16.02,12.51-50.83,10.67-67.83c-0.73-6.7,29.18-32.19,6.06-22.22
	c-10.74,4.63,30.55-33.51,27.37-44.44c-3.54-12.19-13.73-4.96-17.17-17.17c-3.42-12.12-20.98-17.7-40.64-26.26
	C182.83,232.82,166.16,249.64,165.59,249.98z"/>
<path class="st1" d="M43.63,43.95c-12.44,23.19-16.45,38.38-12.25,67.32c0,2.86,1.32,20.3,1.52,25.27
	c1.42,35.01,25.6,64.28,62.55,70.6c46.15,7.89,88.13-2.08,109.15-44.53c11.39-23,10.25-48.67,5.27-71.5
	C202.02,4.63,104.45-12.92,52.96,35.85"/>
<g>
	<path d="M207.27,500.94c0.01,23.02,2.13,45.4,20.28,62.46c4.93,4.63,2.05,7.21-2.71,8.13c-3.91,0.75-8.69,1.19-11.61-2.03
		c-11.46-12.66-24.17-7.58-37.36-3.93c-10.82,2.99-20.71,8.83-32.25,9.67c-7.69,0.56-12.19-1.69-13.04-9.78
		c-1.15-10.79-6.35-20.89-5.27-32.07c0.26-2.65,0.72-5.7-2.57-6.95c-3.92-1.48-5.47,1.61-7.44,4.14
		c-6.54,8.41-5.97,19.52-11.14,28.68c-3.9,6.91-7.58,9.08-14.72,6.46c-2.92-1.07-6.13-1.36-9.2-2.04
		c-8.85-1.96-13.55-1.28-13.25,10.73c0.52,20.42-2.6,40.69,1.66,61.34c3.72,18.04-30.12,46.56-47.81,41.68
		c-7.82-2.16-13.5-8.1-14.86-16.09c-4.2-24.69,18.82-46.67,42.59-40.89c5.11,1.24,6.81-0.18,6.63-4.89
		c-0.65-17.21-0.28-34.38,1.81-51.49c0.95-7.8-5.78-7.37-9.86-8.18c-9.9-1.95-19-5.51-27.62-10.58c-5.25-3.09-8.52-7.03-5.04-13.33
		c10.68-19.33,15.5-41.52,29.28-59.39c7.67-9.95,2.59-22.09,2.95-32.98c0.93-28.5,0.04-57.11-1.11-85.63
		c-0.85-20.89-9.02-39.47-21.59-56.05c-1.36-1.8-3.1-3.3-4.5-5.08c-2.08-2.64-3.12-8.31-1.22-8.33
		c15.02-0.17,4.36-24.32,20.26-21.79c6.46,1.03,8.95-1.9,12.16-5.81c6.03-7.33,11.75-15.04,18.56-21.56
		c6.39-6.11,13.4-8.01,17.84,2.97c4.79,11.85,16.68,14.37,26.39,19.72c0.74,0.41,2.1,0.73,2.6,0.34
		c8.33-6.49,7.37-16.87,10.43-25.58c2.07-5.88-0.8-7.9-6.04-9.45c-29.3-8.7-54.82-24.36-77.59-44.49
		c-9.4-8.31-14.78-20.39-16.83-31.98C19.13,107.51,12.84,67.84,41.6,32.84C57.82,13.1,78.51,3,103.08,0.44
		c9.26-0.96,18.89-0.25,28.14,1.12c44.62,6.62,65.93,38.98,80.43,77c10.31,27.04,9.71,55.45-0.46,82.52
		c-6.51,17.32-22.44,27.76-35.67,39.8c-6.93,6.31-14.65,11.82-23.95,14.53c-10.86,3.17-17.62,9.65-15.72,21.98
		c0.91,5.89-6.26,13.49,1.17,17.28c7.14,3.64,10.63-4.84,14.98-8.92c8.87-8.33,17.34-17.1,26.06-25.61
		c6.93-6.76,12.56-5.39,16.88,3.02c1.43,2.78,2.43,5.95,4.42,8.24c12.62,14.57,18.24,13.9,23.94-4.19
		c8.98-28.45,25.63-53.89,31.7-83.46c0.87-4.25,2.36-11.67,8.97-9.02c5.66,2.27,1.69,8.1,0.19,11.95
		c-12.56,32.29-23.72,65.21-40.01,95.87c-3.77,7.1,0.75,9.13,4.25,11.92c5.6,4.46,12.31,7.36,16.99,13.2
		c7.84,9.79,5.93,18.43-5.58,23.65c-1.58,0.71-3.68,1.38-4.4,2.7c-10.5,19.36-21.17,38.71-23.62,61.21
		c-2.46,22.49-4.63,45-7.26,67.47c-1.19,10.17,1.19,19.74,3.79,29.29c1.25,4.6,2.31,9.13-1.61,12.55c-3.55,3.1-6.54-1.33-9.83-1.78
		c-20.6-2.81-41.58-1.99-61.19,3.52c-20.38,5.72-39.93,5.02-59.74,1.06c-20.34-4.06-19.15-4.27-27.01,14.98
		c-5.74,14.05-14.19,26.98-19.99,41.22c-3.43,8.43-1.38,13.06,6.42,15.73c15.75,5.37,31.26,11.41,48.49,10.85
		c7.21-0.24,11.75-2.17,15.09-8.69c3.5-6.82,7.76-13.3,12.17-19.58c2.77-3.95,1.69-12.97,9.4-10.67c6.6,1.97,12.82,6.3,13.76,14.99
		c0.93,8.52,3.05,16.9,4.05,25.41c0.91,7.69,3.9,8.59,11.66,8.03c16.33-1.19,30.42-11.23,47.21-10.25
		c7.52,0.44,4.52-6.08,3.66-10.15c-4.03-19.16-4.02-38.66-4.8-58.08c-0.15-3.64-1.3-9.49,4.37-9.71c5.16-0.2,5.45,4.93,5.65,9.15
		C206.43,487.36,206.87,494.15,207.27,500.94z M58.37,426.74c0.38,26.15-2.59,24.06,18.99,28.54c25.9,5.37,51.72,0.93,77.31-3.85
		c11.24-2.1,21.95-8.3,34.03-2.74c3.69,1.7,6.71-0.62,6.41-5.77c-1.85-32.18,2.34-63.97,8.65-95.28
		c4.61-22.89,11.97-45.45,27.66-63.72c4.61-5.36,3.62-8.34-1.31-12.02c-9.69-7.24-19.14-14.81-28.86-22.01
		c-18.79-13.92-18.92-13.95-36.73,1.34c-4.85,4.17-14.27,4.75-11.77,15.28c0.76,3.21-3.84,2.73-6.09,3.87
		c-9.81,4.98-17.69-2.52-26.45-3.57c-14.89-1.78-27.75-6.4-38.32-17.07c-4.66-4.71-7.49-5.04-12.94,0.59
		c-7.48,7.72-11.71,17.74-22.68,23.5c-14.97,7.86-13.99,12.67-5.56,28.59c4.8,9.07,9.38,18.27,12.35,28.36
		C62.74,363.62,54.32,397.29,58.37,426.74z M207.2,116.03c0.59-8.71-1.89-15.63-2.94-22.76c-6.64-45.07-38.05-74.69-82.5-80.67
		c-7.86-1.06-11.36,5.12-17.75,3.81c-13.86-2.84-26.33,1.02-37.59,9.06c-41.84,29.87-48.06,108.18-12.19,145.2
		c12.91,13.32,28.51,22.3,44.59,30.04c13,6.26,27.6,13.67,42.35,4.9c7.58-4.5,14.24-10.68,21.65-15.79
		C188.9,171.84,209.71,149.98,207.2,116.03z M31.1,665.86c10.54,1.46,16-11.22,24.06-19.69c3.76-3.95-0.88-6.39-3.82-8.05
		c-12.19-6.89-23.88-1.73-32.22,14.03C13.82,662.15,16.13,666.34,31.1,665.86z"/>
	<path d="M165.58,654.76c-9.15-7.22-7.71-16.79-7.94-25.65c-0.37-14.02-0.01-28.07-0.01-42.1c0-3.06-1.3-7.07,3.06-7.76
		c4.94-0.78,5.78,3.21,5.88,7.06c0.36,13.51,1.26,27.05,0.71,40.52c-0.33,8.02,3.03,8.43,8.83,6.86c2.15-0.58,4.14-1.77,6.28-2.43
		c15.11-4.63,27.82-1.08,30.55,8.46c3.16,11.03-8.45,29.05-20.5,32.74c-9.65,2.95-19.17,4.86-28.96,1.26
		c-5.15-1.89-10.9-4.16-10.9-10.58C152.59,656.37,159.47,657.36,165.58,654.76z M180,661.84c9.29-0.49,21.31-9.76,20.71-15.98
		c-0.46-4.75-3.57-6.51-7.51-5.01c-8.51,3.23-19.08,4.55-22.01,14.98C170.2,659.36,175.28,662.3,180,661.84z"/>
	<path d="M0,187.14c11.46-3.16,13.21,3.59,14.91,9.6c5.96,21.12,7.22,31.54,17.71,51.46c3.79,7.19,11.75,17.5-4.03,22.04
		c-4.23,1.22-5.5-2.63-6.36-6.67c-3.71-17.43-8.82-36.54-12.71-57.92C8.26,198.74,6.37,192.85,0,187.14z"/>
</g>
</svg>
