<?xml version="1.0" encoding="utf-8"?>
<!-- Generator: Adobe Illustrator 24.1.0, SVG Export Plug-In . SVG Version: 6.00 Build 0)  -->
<svg version="1.1" id="Layer_1" xmlns="http://www.w3.org/2000/svg" xmlns:xlink="http://www.w3.org/1999/xlink" x="0px" y="0px"
	 viewBox="0 0 578.1 488.35" style="enable-background:new 0 0 578.1 488.35;" xml:space="preserve">
<style type="text/css">
	.st0{fill:#E0AC69;}
	.st1{fill:#E2CEB3;}
	.st2{fill:#B0E3C9;}
	.st3{fill:#FFFFFF;}
	.st4{fill:#DDBCDC;}
	.st5{fill:#8D5524;}
</style>
<path class="st0" d="M18.93,77.16c-8,14.99-16.01,27.77-13.31,46.48c0,1.85-0.66,17.09-0.53,20.3c0.91,22.63,21.4,41.59,45.15,45.68
	c29.67,5.1,61.75-4.62,75.26-32.06c7.32-14.87,7.83-35.05,4.63-49.81C117.89,61.13,57.12,25.59,24.93,71.92"/>
<g>
	<path class="st1" d="M108.5,208.17c0.59,8.59-26.6,15.64-34.52,11.39c-10.43-5.59-26.03-18.98-37.4-19.39
		c-5.92-0.21-15.24,11.81-16.98,17.53c-5.86,19.31-8.94,20.88-11.87,41.89c-0.68,2.2,21.59,13.76,13.78,23.76
		c-4.91,6.28,5.47-14.68,14.62-16.13c6.13-0.97,11.03,29.39,10.74,35.35c-0.52,11.03-2.46,20.93-3.3,32.02
		c-0.33,4.35-0.7,9.6,4.48,10.23c47.41,5.79,67.31,12.83,88.88,1.27c7.53-4.04,12.97-2.32,14.74-8.62
		c4.51-16.02,0.25-24.67-1.6-41.67c-0.73-6.7-8.25-6.21-1.32-4.92c11.5,2.15,28.33-9.73,28.71-19.04
		c0.5-12.26-18.18-41.96-21.78-54.14c-3.45-11.71-14.85-27.01-31.13-25.9C124.34,191.81,107.21,189.62,108.5,208.17z"/>
	<path d="M159.93,347.32c6.77,4.82,8.77,11.37,8.81,18.68c0.08,14.46-0.34,28.95,1.39,43.34c0.54,4.48-1.61,5.11-5.17,5.06
		c-5.43-0.08-10.86-0.02-16.29,0.07c-4.31,0.07-7.31,0.86-4.59,6.38c6.03,12.27,6.31,25.63,6.3,38.86c0,5.47,0.63,7.61,6.91,6.45
		c6.49-1.2,13.41-0.66,19.5,2.13c3.49,1.6,8.87,3.28,7.8,8.63c-1.12,5.62-4.98,9.58-11.11,10.34c-5.59,0.7-10.85-1.05-15.66-3.47
		c-4.31-2.18-6.13-7.74-12.15-8.36c-2.53-0.26-2.82-4.19-2.59-7.62c1.03-15.34,0.31-30.55-4.14-45.51
		c-1.73-5.84-4.59-8.12-10.31-6.77c-14.77,3.49-25.94,0.89-27.4-17.96c-5.31,3.87-3.23,7.72-2.99,10.8c0.4,5.27-0.09,8.49-6.57,6.17
		c-2.3-0.83-5.18-1.2-6.64,1.15c-2,3.24,1.76,3.73,3.28,5.22c3.25,3.2,3.56,7.39,4.33,11.55c2.48,13.37,0.28,27.15,3.65,40.44
		c0.52,2.06,0.64,4.38-1.67,5.59c-2.16,1.14-3.26-0.71-4.39-2.05c-2.11-2.5-4.34-2.11-6.04,0.16c-6.32,8.4-16.83,7.16-25.08,11.09
		c-3.46,1.65-5.69-0.04-7-3.4c-4.68-12,3.58-23.21,16.38-22.01c4.52,0.43,8.79,1.96,12.9,3.99c3.49,1.73,6.45,0.83,6.11-3.37
		c-1.13-13.67,1.24-27.43-3.66-41.12c-3.05-8.54-7.74-7.74-13.61-6.38c-15.16,3.51-18.78,1.29-21.06-13.99
		c-1.51-10.11-2.61-20.29-4.27-30.38c-0.52-3.15-0.17-6,0.73-8.85c1.6-5.07,5.42-10.14-2.43-13.93c-2.24-1.08-1.27-4.98-1.27-7.69
		c0.02-18.39,0.01-36.78-0.09-55.17c-0.01-2.68,0.02-5.57-0.93-7.98c-1.3-3.31-3.34-7.05-7.59-6.63c-3.84,0.37-5.09,4.14-5.57,7.4
		c-1.49,10.16-4.24,20-6.85,29.89c-0.52,1.96,0.11,4.52-2.66,5.1c-2.49,0.52-3.63-1.71-5.16-3.06c-1.84-1.61-2.48-3.37-0.68-5.44
		c4.57-5.27,5.4-11.75,6.5-18.35c2.29-13.78,2.72-14.08-9.84-20.24c-7.37-3.61-10.08-6.34-5.64-15.32
		c7.95-16.12,11.1-34.22,18.4-50.81c2.71-6.16,6.85-7.4,11.91-6.55c6.76,1.13,13.45,3.13,19.9,5.49c3.65,1.33,6.68,3.07,8.28,8.22
		c2.21,7.14,10.04,8.94,16.82,10.54c1.34-2.12,0.48-3.43-0.15-4.78c-2.41-5.12,2.22-12.83-3.69-15.79
		c-4.72-2.36-11.13-1.26-16.78-1.85c-22.72-2.35-51.65-24.52-55.99-46.52c-4.11-20.86-2.4-41.87,6.97-62.25
		c7.82-17.01,18.8-30.26,35.73-37.02c15.39-6.15,30.59-3.53,45.49,5.26c17.47,10.31,30.58,23.69,39.86,41.62
		c6.35,12.27,9.33,24.64,6.71,38.24c-3.47,18.01-8.78,35.06-24.5,46.64c-1.66,1.23-2.22,2.79-1.47,4.72
		c0.82,2.09,2.56,2.19,4.47,1.98c3.58-0.39,7.18-0.63,10.75-1.09c12.09-1.55,19.39,5.58,24.51,14.78
		c10.4,18.66,20.14,37.68,29.9,56.69c5.3,10.32,3.22,17.47-6.69,23.26c-3.65,2.13-4.36,4.35-3.06,8.1
		c3.75,10.79,7.29,21.66,10.94,32.48c1.02,3.02,3.84,7.76,0.46,8.72c-3.85,1.1-7.69-2.83-8.12-7.61c-0.85-9.43-4.3-18.14-7.34-26.91
		c-1.04-3.01-0.06-9.1-6.15-7.96c-5.25,0.98-6.8,4.93-6.2,10.24c1.48,13.12,0.62,26.49,4.04,39.41c0.75,2.84,1.26,5.53-2.18,6.78
		c-16.57,6.01-32.44,14.99-51.06,12.63c-13.45-1.7-26.97-3.09-40.27-5.63c-6.62-1.26-9.66,1.24-11.83,6.5
		c-2.86,6.92-2.86,14.12-1.53,21.35c1.3,7.08,3.31,14.08,4,21.21c0.8,8.22,4.93,10.85,12.5,9.55c1.48-0.25,2.98-1.18,4.37-1
		c14.32,1.89,21.48-3.78,20.54-18.7c-0.19-3.04,2.03-5.09,4.96-5.63c3.44-0.63,3.48,2.51,4.4,4.59c0.72,1.64,1.72,3.21,2.19,4.92
		c5.92,21.36,23.31,14.26,37.47,15.09c1.78,0.1,3.58-0.44,5.38-0.54c16.11-0.87,16.07-0.86,15.74-17.42
		C162.78,376.92,164.74,361.99,159.93,347.32z M49.28,307.9c-0.13,0-0.27,0-0.4,0c0,9.64,0.35,19.29-0.13,28.9
		c-0.29,5.78,1.57,8,7.36,8.6c13.17,1.35,26.37,2.8,39.36,5.22c14.44,2.69,27.96,1.05,41.47-4.53c13.71-5.65,13.83-5.25,11.89-19.99
		c-0.35-2.67-0.04-5.42-0.3-8.11c-0.94-9.99,1.69-20.57-5.45-29.54c-2.45-3.07,0.13-6.37,2.91-4.91c9.07,4.79,14.71-2.27,21.32-5.27
		c7.12-3.22,9.99-8.66,6.74-16.93c-7.18-18.26-18.12-34.62-25.94-52.52c-5.39-12.34-14.71-17.43-27.91-17.01
		c-5,0.16-7.77,0.85-7.88,6.81c-0.12,6.63-1.51,13.3-7.39,17.71c-17.25,12.97-40.72,8.67-52.45-9.55c-3.76-5.84-10-6.08-15.9-6.62
		c-5.38-0.49-7.97,3.32-10,7.64c-7.06,15.05-10.16,31.46-16.19,46.89c-2.78,7.11,5.1,8.2,8.99,10.13c3.92,1.94,4.28-2.64,4.62-5.53
		c0.63-5.33,3.33-3.34,5.18-1.2c4.64,5.35,10.77,8.71,16.41,12.66c2.91,2.04,3.85,3.92,3.76,7.32
		C49.12,288.01,49.28,297.95,49.28,307.9z M7.94,113.85c-1.29,27.45,3.6,44.56,16.34,57.28c26.16,26.11,71.94,24.74,91.89-5.28
		c13.12-19.75,18.86-41.29,8.89-64.76c-8.92-21-24.19-35.86-44.52-45.1c-12.98-5.9-26.7-6.75-39.77,1.51
		C16.6,72.78,11.3,97.56,7.94,113.85z M84.26,207.39c-0.14,11.22,1.69,12.21,10.69,8.08c6.65-3.05,14.54-16.84,12.26-25.85
		c-0.68-2.67-1.65-3.81-4.28-2.6c-2.19,1.01-4.21,2.56-6.49,3.17C86.66,192.82,78.53,196.32,84.26,207.39z M80.41,472.32
		c-2.76-3.91-7.7-3.32-11.8-4.16c-4.76-0.98-9.14,0.21-10.52,5.84c-1.45,5.92,1.28,8.56,7.16,6.92c3.77-1.05,7.48-2.32,11.17-3.6
		C78.49,476.6,80.18,475.39,80.41,472.32z M159.29,470.88c-0.26-0.05-2.66-0.61-3.46,2.02c-0.78,2.55,1.79,3.3,3.31,4.62
		c3.06,2.67,6.72,3.67,10.59,4.22c3.38,0.48,6.2-0.64,6.9-4.02c0.71-3.43-2.34-4.6-4.93-5.17
		C168.23,471.78,164.65,471.57,159.29,470.88z"/>
</g>
<g>
	<path class="st2" d="M500.13,169.57c-5.32,6.77-26.6,15.64-34.52,11.39c-10.43-5.59-21.91-14.19-33.28-14.6
		c-5.92-0.21-13.75,9.35-15.48,15.07c-5.86,19.31-14.53,28.62-17.46,49.63c-0.68,2.2,11.15,12.11,13.75,13.69
		c6.81,4.14,6.52,4.71,15.67,3.26c6.13-0.97,5.4,10.04,5.12,15.99c-0.52,11.03,2.12,20.89,1.28,31.98
		c-0.33,4.35-0.68,10.97,4.48,10.23c23.91-3.41,60.8,5.1,84.94,0.09c8.37-1.74,16.91-1.15,18.69-7.45
		c4.51-16.02,0.25-24.67-1.6-41.67c-0.73-6.7-8.25-6.21-1.32-4.92c11.5,2.15,28.32-3.9,28.7-13.21c0.5-12.26-24.11-37.73-27.7-49.91
		c-3.45-11.71-12.51-26.47-28.78-25.36C512.39,163.83,506.44,161.54,500.13,169.57z"/>
	<path class="st3" d="M419.71,40.65c-8,14.99-10.57,24.8-7.87,43.51c0,1.85,0.85,13.12,0.98,16.33
		c0.91,22.63,16.45,41.55,40.2,45.63c29.67,5.1,56.65-1.34,70.16-28.78c7.32-14.87,6.59-31.46,3.39-46.21
		C514.34,24.53,458.8,3.9,425.71,35.42"/>
	<path d="M433.63,248.57c5.09,4.47,3.3,15.1,2.83,22.04c-0.58,8.64,1.83,16.71,2.92,25.02c0.35,2.67,1.17,5.13,4.97,5.21
		c26.14,0.59,52.16,4.73,78.39,2.42c3.6-0.32,7.27-0.47,10.75-1.32c5.54-1.35,8.94-4.64,8.39-10.97c-0.8-9.29-1.56-18.6-2.01-27.92
		c-0.18-3.71-3.02-4.87-5.07-6.93c-1.53-1.55-2.62-3.52-1.35-5.7c1.05-1.8,2.94-1.91,4.78-1.42c7.04,1.86,12.69-1.95,18.94-4.05
		c8.52-2.86,7.64-7.35,4.59-13.73c-5.56-11.62-14.2-21.36-19.37-33.32c-2.71-6.27-5.92-12.38-8.39-18.83
		c-3.71-9.68-17.99-16.14-27.47-12.54c-1,0.38-1.87,1.44-2.51,2.39c-13.16,19.67-39.97,22.57-57.25,6.28
		c-2.53-2.39-4.69-5.37-8.93-5.54c-7.4-0.3-13.1-0.54-16.21,9.1c-4.66,14.46-13.32,27.4-18.21,42.02
		c-2.56,7.65-2.7,12.47,5.42,15.85c5.96,2.48,10.07,10.23,19.61,4.87c-4.83,12.88-9.01,24.23-13.36,35.51
		c-0.87,2.25-1.28,6.1-5.09,4.45c-2.86-1.24-3.04-4.54-2.02-7.17c2.17-5.6,4.54-11.14,7.21-16.51c2.79-5.6,1.73-9.19-3.73-12.72
		c-20.05-12.95-19.96-13.13-11.27-35.63c5.51-14.27,14.49-27.04,18.03-42.17c0.74-3.14,3-5.39,6.57-5.04
		c7.16,0.71,14.32,1.52,21.45,2.54c3.64,0.52,7.45,1.9,8.68,5.6c2.82,8.54,10.12,7.06,16.4,8.03c0.57,0.09,1.51,0.07,1.72-0.26
		c4.73-7.25-0.72-14.42-0.32-21.71c0.21-3.88-3.46-4.43-6.68-4.15c-27.71,2.38-50.61-20.2-57.41-43.99
		c-5.39-18.83-3-37.1,0.01-55.16c3.48-20.85,30.49-37.24,54.11-36.06c39.81,1.99,75.21,47.64,71.55,80.87
		c-2.72,24.73-13.13,43.02-39.91,49.1c-1.47,0.33-2.88,0.92-4.36,1.21c-8.58,1.68-13.27,5.36-8.16,14.72
		c0.79,1.46,0.21,3.6,0.62,5.34c0.72,3.05-1.35,7.82,2.54,8.78c3.72,0.92,8.29-1.38,9.83-5.07c7.08-16.9,21.65-8.32,32.99-9.59
		c4.6-0.52,7.91,5.22,9.83,9.65c9.23,21.32,20.51,41.48,33.05,61.01c4.69,7.31,3.3,11.36-5.03,14.65
		c-6.63,2.62-9.51,4.37-3.66,11.75c6.56,8.26,6.84,20.34,15.29,28.11c2.11,1.94-0.55,3.94-2.97,3.56c-4.87-0.75-7.86-3.68-9.48-8.49
		c-2.49-7.4-5.46-14.64-8.21-21.96c-1.47-3.92-3.46-7.42-8.44-6.08c-4.88,1.31-2.85,5.08-2.37,8.21
		c1.65,10.68,1.39,21.63,4.62,32.09c0.93,3.01,0.26,5.54-2.98,6.49c-6.15,1.8-4.75,5.92-3.32,10.07
		c4.51,13.05,8.15,26.34,11.3,39.79c1.35,5.78,0.77,8.09-6.3,7.68c-19.54-1.11-19.64-0.74-18.65,18.56
		c0.53,10.23,1.53,20.43,2.06,30.66c0.22,4.21,0.81,6.4,5.79,4.13c7.07-3.22,14.8-2.28,22.28-2.29c5.44,0,9.27,3.34,10.12,8.5
		c0.92,5.6-3.99,6.38-8.06,7.82c-8.69,3.08-17.87,2.28-26.76,3.31c-8.2,0.95-14.36-10.07-11.08-17.81
		c1.76-4.14,0.26-8.36,0.13-12.49c-0.35-11.13-1.22-22.25-1.98-33.37c-0.38-5.62-2.72-8.22-8.84-6c-3.93,1.42-8.2,1.9-12.32,2.82
		c-1.17,0.26-2.76,1.22-3.42,0.77c-9.15-6.25-19.77-1.72-29.47-4.04c-2.61-0.63-7.9-1.76-5.54,5.3c4.55,13.6,2.16,28.05,4.03,42.04
		c1.03,7.72,1.06,15.58,3.72,23.03c0.59,1.65,1.07,4.14,2.27,4.64c11.07,4.61,2.38,4.91-1.22,7.2c-7.91,5.03-16.74,6.52-25.69,7.86
		c-3.84,0.57-7.4-0.09-9.85-3.15c-3.12-3.89-8.17-7.28-6.8-13.06c1.44-6.06,7.12-7.58,12.4-9.17c3.49-1.05,7.12-2.46,10.62-1.44
		c10.08,2.93,9.19-3.39,8.4-9.57c-1.96-15.22-3.61-30.8-3.29-45.78c0.22-10.76-4.28-8.09-9.3-8.49c-4.79-0.38-9.62-0.27-14.43-0.32
		c-3.22-0.03-5.02-2.05-6.02-4.66c-1.04-2.73,1.44-3.54,3.21-4.58c4.35-2.54,3.99-7.18,4.72-11.16c1.09-5.91,1.75-11.91,2.35-17.9
		c0.36-3.64,1.76-6.29,5.23-7.74c1.66-0.69,3.31-1.94,4.86-0.1c1.2,1.43,0.18,2.68-0.67,3.98c-6.12,9.48-4.44,21-7.99,31.21
		c-1.31,3.75,2.6,3.94,5.2,4.45c11.02,2.13,22.21,0.98,33.3,1.76c3.06,0.22,3.64-1.26,3.66-3.68c0.02-3.02-0.03-6.03,0.09-9.05
		c0.09-2.3,1.24-4.1,3.52-4.66c2.05-0.5,3.78,0.87,4.37,2.5c5.12,14.28,15.09,17.47,29.19,14.48c7.2-1.53,14.97-0.39,22.48-0.48
		c4.74-0.05,6.69-2.57,5.55-7.03c-3.05-11.9-6.27-23.76-9.48-35.62c-0.66-2.43-2.07-2.76-4.75-2.41
		c-27.01,3.58-53.98,2.26-80.93-0.95c-3.22-0.38-7.14-0.83-9.72,0.59c-6.99,3.86-8.64-1.7-9.19-5.55
		c-1.91-13.62-4.98-27.16-4.05-41.09C429.52,256.61,412.95,239.11,433.63,248.57z M526.36,89.52c0.27-32.1-35.84-67.68-69.27-66.92
		c-21.07,0.48-35.55,12.29-40.86,32.39c-2.18,8.24-2.16,16.65-3.58,24.87c-2.74,15.85,1.83,29.96,9.51,43
		c8.1,13.76,21.15,20.13,37.11,22.38c15.5,2.19,28.96-3.19,42.86-7.93c8.24-2.81,13.54-8.75,17.51-16.07
		C524.77,111.78,526.62,101.53,526.36,89.52z M451.77,428.88c-1.17,0.18-3.53,0.58-5.9,0.91c-4.11,0.56-8.57,1.8-7.87,6.69
		c0.71,4.97,4.3,8.81,10.03,8.35c3.83-0.31,7.6-1.56,11.36-2.54c2.54-0.67,5.76-0.73,6.62-3.87c1.04-3.78-2.58-4.97-4.62-6.97
		C459.06,429.15,456.03,428.99,451.77,428.88z M554.35,414.79c-5.62,0.31-10.96,1.06-16.09,2.9c-1.82,0.66-3.2,1.9-2.53,4.05
		c0.56,1.82,2.31,1.64,3.76,1.57c5.1-0.24,10.23-0.32,15.28-0.97c2.73-0.35,7.17,0.13,7.16-3.79
		C561.93,413.57,556.88,415.91,554.35,414.79z"/>
</g>
<g>
	<path class="st4" d="M322.69,155.9c-0.7,2.49-11.86-0.97-15.06-0.51c-8.17,1.17-23.99,14.2-31.91,9.96
		c-10.43-5.59-16.46-10.8-27.83-11.21c-5.92-0.21-11.8,10.09-13.53,15.81c-5.86,19.31-19.5,30.84-22.44,51.85
		c-0.68,2.2,3.5,8.1,6.1,9.68c6.81,4.14,12.29,9.11,21.45,7.66c6.13-0.97,5.64,5.53,5.36,11.49c-0.52,11.03,5.14,22.15,4.3,33.24
		c-0.33,4.35,6.11,33.63,11.27,32.89c23.91-3.41,46.08,7.56,70.21,2.56c8.37-1.74,21.46,3.75,23.23-2.56
		c4.51-16.02-5.56-48.11-7.4-65.11c-0.73-6.7-5.9-8.19,1.02-6.89c11.5,2.15,26.66-13.58,23.49-24.51
		c-3.54-12.19-12.13-18.41-15.57-30.63c-3.42-12.12-5.11-23.5-24.77-32.06C330.41,157.46,323.27,155.55,322.69,155.9z"/>
	<path class="st5" d="M206.25,49.12c-0.75,16.91-5.59,31.73,4.9,47.36c0.8,1.66,12.87,9.05,14.37,11.87
		c7.12,20.27,34.89,23.94,58.06,17.34c30.9-3.12,52.89-21.8,53.25-52.27c0.19-16.51-8.41-28.44-17.65-40.3
		c-29.71-43.29-91.65-37.61-107.9,5"/>
	<path d="M277.32,161.06c0.19-10.06-4.77-17.57-4.52-26.11c0.11-3.73-3.95-2.85-6.49-2.92c-8.79-0.26-17.73-0.7-25.73-4.27
		c-21.96-9.79-34.36-27.46-39.26-50.59c-5.24-24.72,3.11-44.95,21.51-61.37c23.65-21.1,63.8-20.11,84.06-2.74
		c16.14,13.84,26.49,29.49,33.57,48.81c6.65,18.14-2.72,45.2-21.32,57.87c-10.31,7.02-21.88,9.63-33.74,11.53
		c-5.15,0.83-7.76,1.5-5.09,7.8c2.53,5.96,5.02,12.2,4.74,19.11c-0.19,4.74,2.39,5.76,6.4,3.25c2.8-1.75,6.72-2.75,8.3-5.24
		c6.14-9.66,14.11-5.35,21.83-3.67c2.33,0.51,4.8,2.11,6.9,1.7c12.4-2.47,16.87,5.67,20.95,14.8c6.86,15.37,13.49,30.83,23.37,44.68
		c4.41,6.19,1.67,18.9-5.35,24.33c-4.31,3.33-5.3,6.14-3.63,11.4c3.35,10.54,4.12,21.82,9.41,31.87c1.46,2.78,2.68,7.62-1,8.82
		c-4.23,1.38-5.44-3.46-6.36-6.72c-2.69-9.49-6.26-18.76-7.18-28.71c-0.24-2.63-1.02-5.26-3.86-7.49c-3.58,2.49-2.96,6.13-2.49,9.47
		c2.66,18.97,4.07,37.98,8.81,56.84c3.74,14.89,7.22,30.28,8.94,45.8c0.5,4.53-0.63,6.51-4.85,7.97c-10.4,3.61-20.9,5.05-31.95,4.35
		c-8.05-0.51-16.23-2-24.24,1.97c-4.21,2.08-4.03-2.97-5.22-5.33c-1.33-2.65-0.84-6.68-6.25-2.74c-3.34,2.43-9.25,1.63-14.01,1.69
		c-4.12,0.05-6.3,1.86-4.3,5.36c5.55,9.67,3.05,20.07,3.31,30.12c0.25,10.02,1.32,19.73,4.25,29.32c2.55,8.35,1.17,9.89-7.06,8.55
		c-6.13-1-11.85,0.59-17.74,1.95c-5.07,1.16-11.15,3.14-13-4.98c-1.52-6.71,2.2-11.05,10.23-12.73c4.73-0.99,8.91,1.03,13.36,1.47
		c3.45,0.34,5.74-0.36,4.8-4.09c-3.39-13.41-1-27.01-1.75-40.5c-0.62-11.16-1.17-11.78-12.3-11.4c-6.59,0.23-12.9-2.02-19.69-1.33
		c-3.93,0.4-6.07-3.97-3-7.82c8.31-10.41,9.93-23.65,15.39-35.25c0.57-1.21,0.78-3.11,0.25-4.26c-9.18-19.63-7.81-41.7-14.42-61.9
		c-0.62-1.89,0.02-4.3-3.1-6.25c-4.56,10.18-7.43,20.67-9.79,31.28c-0.68,3.04-0.95,5.97-4.01,7.52c-1.3,0.66-2.25-0.36-3.08-1.22
		c-2.86-2.93-1.61-5.86-0.34-9.1c4.61-11.75,8.95-23.6,13.43-35.4c0.77-2.04,1.09-4.04,0.39-6.13c-9.76,1.34-26.48-10.73-28.07-20.3
		c-0.18-1.11-0.31-2.67,0.29-3.42c12.53-15.56,17-34.94,25.07-52.6c3.45-7.55,7.77-14.06,17.03-15.18c1.67-0.2,3.42-1.91,4.73,0.32
		C259.39,157.69,269.05,156.54,277.32,161.06z M236.19,229.16c0.21,6.59,9.47,7.37,10.05,15.17c1.65,21.92,10.64,42.52,11.88,64.56
		c0.33,5.83,4.27,6.49,9,5.75c16.54-2.61,32.95-0.32,49.33,1.57c8.16,0.94,16.18,0.58,24.29-0.36c13-1.51,12.98-1.36,9.35-14.33
		c-0.56-2.01-0.58-4.16-0.84-6.25c-1.84-15.17-3.16-30.44-5.78-45.47c-0.98-5.63-0.67-7.12,5.21-8.15
		c13.38-2.34,22.26-18.11,15.73-28.73c-8.52-13.87-15.55-28.33-21.99-43.19c-1.73-3.99-3.95-8.39-9.04-9.41
		c-12.74-2.56-25.47-6.37-36.65,4.94c-3.97,4.01-9.58,6.46-15.79,4.23c-8.75-3.14-17.91-5.51-26.1-9.75
		c-7.03-3.63-10.97-1.79-13.76,4.35C233,181.81,225,199.6,217.41,217.57c-3.93,9.31,5.54,11.43,10.04,15.66
		C232.53,237.98,231.43,228.75,236.19,229.16z M215.41,60.61c0.62,7.5,0.58,15.13,2,22.47c2.24,11.53,2.79,23.55,14.76,31.31
		c18.74,12.13,38.62,13.85,59.41,9c34.31-7.99,48.64-31.55,39.79-65.19c-5.32-20.23-17.25-34.91-36.87-43.88
		c-20.11-9.2-38.31-2.02-55.29,6.24C223.91,27.99,212.9,41.02,215.41,60.61z M340.98,366.19c19.97-0.49,21.94-2.75,19.54-22.4
		c-0.26-2.09-0.47-4.19-0.82-6.26c-2.72-16.37-2.76-16.78-19.05-15.35c-18.16,1.6-35.94-2.22-53.94-2.76
		c-19.33-0.58-21.86,0.69-28.17,18.7c-2.09,5.95-3.98,11.99-6.44,17.77c-2.31,5.43-0.65,7.63,4.92,8.55
		c10.71,1.76,20.43-4.22,31.01-3.58c2.6,0.16,3.97-2.36,3.91-5.15c-0.06-3.01-0.08-6.01-0.14-9.02c-0.04-2.13-0.2-4.4,2.35-5.25
		c2.74-0.91,4.54,0.44,5.87,2.81c3.07,5.49,6.3,10.89,9.29,16.42c1.13,2.09,1.46,4.85,4.7,4.5
		C323.06,364.19,331.98,366.04,340.98,366.19z M214.28,33.11c7.78-5,12.97-12.68,21.25-16.77c0.77-0.38,1.06-1.97,1.24-3.05
		c0.04-0.23-1.84-1.21-2.1-0.99C227.22,18.65,218.37,23.68,214.28,33.11z M209.13,55.94c-0.89,0.06-1.78,0.13-2.66,0.19
		c-0.53,10.28-0.42,20.5,4.69,30.19C210.48,76.2,209.8,66.07,209.13,55.94z M262.2,437.76c3.02-1.03,8.35,0.63,8.96-4.29
		c0.35-2.84-4.09-3.07-6.51-2.87c-3.19,0.27-7.99-0.67-8.32,4.28C256.13,437.77,259.41,437.82,262.2,437.76z"/>
	<path d="M335.41,409.98c-0.73-9.57,1.37-19.3-1.34-28.79c-0.59-2.07-0.98-4.61,1.81-5.16c1.95-0.39,2.95,1.69,3.61,3.4
		c2.21,5.68,3.24,11.56,3.16,17.67c-0.11,8.44,0.06,16.89-0.14,25.33c-0.12,5.03,0.89,5.7,6.24,4.34
		c10.34-2.64,20.91-2.89,29.04,6.39c2.38,2.72,3.69,5.67,2.49,9.08c-1.22,3.46-4.69,3.95-7.59,3.64
		c-10.64-1.14-21.66,1.14-31.91-4.18c-3.81-1.98-5.48-4.1-5.41-8.21C335.5,425.66,335.41,417.82,335.41,409.98z M357.58,431
		c-1.26,0-3.14-0.32-4.85,0.07c-2.7,0.63-6.86,0.03-6.61,4.4c0.24,4.08,4.05,3.82,6.97,4.03c3.59,0.26,7.2,0.13,10.79,0.32
		c2.71,0.15,6.25,3.3,7.75-1.01c1.51-4.33-2.75-5.25-5.58-6.78C363.53,430.69,360.87,430.58,357.58,431z"/>
</g>
</svg>
