<?xml version="1.0" encoding="utf-8"?>
<!-- Generator: Adobe Illustrator 24.1.0, SVG Export Plug-In . SVG Version: 6.00 Build 0)  -->
<svg version="1.1" id="Layer_1" xmlns="http://www.w3.org/2000/svg" xmlns:xlink="http://www.w3.org/1999/xlink" x="0px" y="0px"
	 viewBox="0 0 605.86 540.43" style="enable-background:new 0 0 605.86 540.43;" xml:space="preserve">
<style type="text/css">
	.st0{fill:#E0AC69;}
	.st1{fill:#B0E3C9;}
	.st2{fill:#8D5524;}
	.st3{fill:#FFFFFF;}
</style>
<g>
	<path class="st0" d="M233.49,140.79l4.18,8.09l19.15,11.74l17.18,3.32c21.49,1.43,34.93-15.63,50.02-26.6
		c3.15-2.29,2.57-6.33-2.13-6.02c-11.73,0.76-24.31-6.68-35.19,3.37c-0.72,0.66-2.39,0.49-3.6,0.41
		c-8.34-0.58-16.27-3.03-24.08-5.72c-2.99-1.03-5.23-3.49-5.06-7.04c0.17-3.56,2.93-5.08,5.69-6.64c5.55-3.13,11.45-1.42,17.22-1.61
		c10.18,0.16,20.59,0.53,30.12-3.14c10.14-3.9,23.6-5.45,21.26-22.12c-0.36-2.58,2.19-5.61,3.49-8.39c1.19-2.56,2.11-5.01,1.03-7.95
		c-4.11-11.23-7.11-22.91-14-32.97c-10.08-14.73-22.47-24.37-41.85-24.03c-10.81,0.19-20.49,3.5-30.66,5.57
		c-6.92,1.4-11.52,5.55-14.96,11.33c-2.84,4.76-6.12,9.35-8.28,14.41c-6.04,14.19-13.17,27.92-5.6,44.47
		c4.11,8.99,5.93,19.66,4.31,29.73c-0.88,5.47,0.25,8.6,4.02,11.87C228.52,135.3,230.84,138.28,233.49,140.79"/>
	<path class="st1" d="M337.51,347.31c0.01-0.15,0.02-0.3,0.04-0.44c3.38,0.19,6.76,0.5,10.15,0.56c12.75,0.24,14-0.85,10.68-12.8
		c-5.8-20.91-7.8-42.19-7.88-63.78c-0.02-5.21-0.33-10.6-7.26-11.93c-1.38-0.27-2.94-1.44-2.35-3.37c0.55-1.78,2.03-1.92,3.71-1.7
		c10.11,1.35,18.2-3.91,26.89-7.76c6.28-2.78,6.04-5.51,3.93-11.31c-6.09-16.76-18.17-30.73-22.24-48.29
		c-2.99-12.91-13.27-14.08-23.3-14.38c-7.74-0.24-16.37-0.7-22.08,6.68c-14.37,18.58-22.74,20.83-44.23,12.18
		c-9.53-3.83-18.95-7.32-29.91-5.95c-5.23,0.66-8.02,1.89-9.42,6.49c-5.74,18.8-12.95,37.23-14.74,57.06
		c-0.28,3.09-0.68,6.12,0.93,9.01c4.57,8.21,24.33,14.98,33.39,10.9c4.16-1.87,5.3,0.59,5.62,3.18c0.49,3.93,0.17,7.99-0.14,11.97
		c-1.17,14.71-2.96,29.39-3.6,44.13c-0.61,13.95-0.1,13.93,13.77,13.27c3.05-0.15,6.13,0,9.18,0.26
		C291.61,343.26,314.56,345.29,337.51,347.31z"/>
	<path class="st1" d="M145.96,327.66c14.89,6.74,23.03-0.83,30.28-10.48c2.71-3.61,2.46-7.01,0.29-11.08
		c-8.99-16.87-21.84-31.17-31.35-47.7c-3.45-6.01-25.99-5.66-29.65-0.11c-0.47,0.71-0.8,1.87-0.56,2.61
		c3.63,11.16-5.08,12.87-12.07,15.33c-14.65,5.17-26.8-2.01-37.27-10.32c-8.89-7.06-18.57-7.12-28.5-8.25
		c-2.59-0.29-3.9,0.97-4.14,3.68c-1.96,22.1-7.42,43.57-11.99,65.19c-1.25,5.9,0.12,10.33,6.99,11.61c3,0.56,5.9,1.74,8.76,2.87
		c3.24,1.28,5.77,1.74,7.25-2.51c1.8-5.16,5.96-1.88,8.41-1.2c3.97,1.11,2.07,3.95,0.58,6.55c-1.19,2.07-2.35,4.7-2.14,6.95
		c1.24,13.39-0.09,27.05,4.64,40.12c1.57,4.35,3.42,6.4,8.26,6.9c8.85,0.92,17.55,3.39,26.4,4.15c16.52,1.41,33.24,3.39,49.6-0.65
		c15.17-3.75,17.77-2.22,14.18-19.85c-0.48-2.38,0.11-4.99-0.38-7.36C150.47,359.25,154.96,343.37,145.96,327.66z"/>
	<g>
		<path class="st1" d="M475.92,313.41c-0.09,4.6-7.14,2.39-5.44,7.67c5.26,16.34,4.11,33.47,6.01,50.23
			c0.6,5.34,2.27,10.36,8.89,12.71c21.63,7.68,43.6,9.6,66.24,6.32c6.45-0.93,10.43-3.11,10.2-10.28
			c-0.12-3.69,0.75-7.46,0.26-11.07c-2.31-16.9-1.11-33.86-0.98-50.78c0.07-9.03,1.83-10.94,9.36-13.98c0.27-0.11,0.65-0.3,0.7-0.53
			c2.2-8.6,6.06-6.14,10.69-1.9c0.6,0.55,3.41-0.81,4.87-1.77c7.19-4.77,7.86-11.92,1.99-23c-9.91-18.69-19.94-37.31-29.98-55.93
			c-1.13-2.09-2.38-5.3-5.34-3.81c-5.72,2.89-12.93,2.93-16.08,10.85c-2.68,6.73-7.54,14.73-15.42,14.41
			c-9.46-0.38-18.93,1.21-28.44-0.53c-10.44-1.91-18.4-8.1-27.04-13.35c-10.73-6.52-18.48-4.63-19.65,5.2
			c-2.16,18.13-7.12,35.55-11.78,53.06c-1.15,4.32-1.11,8.2,2.23,11.03c7.98,6.77,16,13.59,27.4,13.85
			C468.4,311.89,472.17,312.85,475.92,313.41z"/>
		<path d="M524.39,435.17c-2.76,7.06-5.44,10.52-10.98,5.76c-0.95-0.81-2.99-0.28-4.51-0.49c-11.14-1.5-10.83-1.57-8.6,9.5
			c2.86,14.22,2.89,28.75,4.07,43.16c0.32,3.89-0.73,8.08,5.85,9.57c4.96,1.12,1.6,5.07-1.34,6.08c-4.33,1.48-8.97,2.2-13.53,2.88
			c-6.4,0.96-12.92,1.2-19.24,2.52c-3.88,0.81-7.54,2-9.69-2.19c-2.49-4.87-1.94-10.26-0.2-15.19c1.57-4.44,5.77-2.09,8.91-2.33
			c0.6-0.05,1.22,0.14,1.83,0.23c6.43,0.96,14.75,5.55,18.72,1.5c3.31-3.37,1.22-12.25,1.11-18.69c-0.12-7.69-0.39-15.4-1.11-23.05
			c-1.15-12.18-7.22-16.49-20.12-14.84c-9.97,1.27-11.64-0.59-10.31-10.78c1.63-12.5,4.4-25.2,4.44-37.48
			c0.07-23.22-0.47-46.71-5.65-69.63c-0.55-2.45-0.61-7.14-5.68-3.98c-0.66,0.41-2.11,0.57-2.57,0.15
			c-12.24-11.01-8.01,0.26-7.46,5.64c1,9.8-4.05,18.58-4.36,28.15c-0.04,1.1-1.69,2.66-2.92,3.1c-1.71,0.61-2.52-1.34-3.45-2.46
			c-1.84-2.23-1.15-4.63-0.26-6.99c6.87-18.21,5.27-34.91-9.36-48.87c-3.03-2.89-3.29-5.35-1.91-8.78
			c8-19.82,11.35-40.76,14.69-61.69c1.08-6.78,4.09-7.68,10.99-8.39c14.24-1.46,23.52,8.52,35.43,11.96
			c3.1,0.89,7.11,4.86,8.54-1.78c0.94-4.4,0.67-7.55-5.6-7.75c-6.28-0.2-11.16-4.93-16.35-8.11c-11.19-6.84-19.57-16.85-28.2-26.49
			c-1.59-1.77-4.57-4.94-1.93-7.18c2.88-2.45,4.81,1.39,6.45,3.25c8.59,9.67,17.63,18.68,28.22,26.35
			c12.81,9.28,26.23,7.8,37.92,0.97c13.32-7.77,24.72-18.84,36.9-28.55c0.55-0.44,0.48-1.64,0.96-3.51c-19.6,0-38.54-8-57.99,0.29
			c-5.59,2.38-11.41,0.02-15.85-4.84c-3.39-3.71-2.1-7.38-0.77-11.19c2.27-6.54,8.04-5.77,13.14-5.95c3.35-0.12,7.3-0.51,10,0.99
			c8.81,4.92,17.49,1.79,25.98,0.11c6.3-1.24,12.28-3.9,18.96-2.96c4.85,0.69,6.2-2.08,4.96-6.19c-1.6-5.28-0.13-10.66,2.88-13.93
			c4.61-5.02,3.09-8.81,1.15-13.98c-4.3-11.46-6.41-23.67-13.34-34.22c-5.14-7.81-10.73-15.21-18.19-20.69
			c-13.3-9.77-28.76-9.13-42.98-4.12c-26.48,9.33-37.89,31.18-43.15,57.31c-2.11,10.47-3.06,20.21,3.5,29.74
			c3.16,4.59,2.18,10.75,2.47,16.26c0.34,6.54-2.28,11.58-8.73,13.57c-6.43,1.99-12.32,0.81-16.24-5.27
			c-5.74-8.89-8.86-19.12-6.15-29.08c6.36-23.4,12.18-47.14,23.98-68.64c2.99-5.45,8.59-8.98,13.87-11.99
			c15.6-8.9,32.45-14.81,50.18-17.47c6.35-0.95,12.99,1.36,18.5,4.9c24.63,15.81,43.84,35.69,48.19,66.29
			c0.51,3.62,0.09,7.46,5.64,7.78c1.4,0.08,3.09,2.86,3.86,4.73c6.88,16.69,7.9,36.98-10.87,48.13
			c-9.51,5.65-15.82,14.13-24.62,20.23c-11.8,8.18-21.9,18.42-36.68,21.97c-7.51,1.81-0.86,8.36-1.94,12.7
			c-0.99,4,3.92,4.43,6.68,4.03c4.48-0.65,8.88-1.92,12.53-5.22c8.71-7.86,17.68-15.01,29.47-18.51c6.07-1.8,8.88-1.48,11.54,4.19
			c10.39,22.23,23.69,42.96,33.34,65.61c5.57,13.08,5.71,15.57-6.88,22.67c-6.09,3.44-7.62,6.29-4.51,12.96
			c3.07,6.59,4.21,14.08,6.2,21.18c0.71,2.55,0.68,4.86-1.75,6.6c-1.51,1.08-3.01,0.74-4.29-0.13c-2.29-1.55-5.6-3.79-4.25-6.38
			c4.15-7.89-0.32-14.29-2.64-21.05c-0.91-2.66-1.58-6.49-5.96-5.66c-4.21,0.8-6.33,3.54-6.26,7.85c0.22,13.56,0.4,27.12,0.74,40.67
			c0.14,5.53,0.84,11.05,0.99,16.59c0.2,7.19,0.41,13.67,4.05,20.86c5.61,11.08,7.57,23.96,11.4,35.98
			c1.51,4.72-0.38,7.07-4.41,8.47c-6.13,2.13-12.4,4.29-18.9,4c-7.5-0.34-8.69,2.37-7.43,9.38c2.33,13.01,4.79,26.1,4.09,39.45
			c-0.35,6.66,2.64,8.83,9.12,7.54c6.02-1.2,12.18-1.71,18.28-2.58c6.55-0.93,12.14,1.48,17.3,5.09c3.46,2.42,3.8,6.25,3.47,10
			c-0.35,3.99-3.78,4.42-6.82,4.97c-10.62,1.92-21.14,2.92-32.07,1.38c-9.18-1.29-13.07-8.05-18.21-13.79
			c-0.66-0.74-0.85-2.49-0.48-3.49c6.47-17.63,0.24-34.87-1.37-52.26c-0.71-7.62-6.85-7.67-11.56-7.69
			C529.77,443.94,526.04,442.85,524.39,435.17z M475.92,313.41c-0.09,4.6-7.14,2.39-5.44,7.67c5.26,16.34,4.11,33.47,6.01,50.23
			c0.6,5.34,2.27,10.36,8.89,12.71c21.63,7.68,43.6,9.6,66.24,6.32c6.45-0.93,10.43-3.11,10.2-10.28
			c-0.12-3.69,0.75-7.46,0.26-11.07c-2.31-16.9-1.11-33.86-0.98-50.78c0.07-9.03,1.83-10.94,9.36-13.98c0.27-0.11,0.65-0.3,0.7-0.53
			c2.2-8.6,6.06-6.14,10.69-1.9c0.6,0.55,3.41-0.81,4.87-1.77c7.19-4.77,7.86-11.92,1.99-23c-9.91-18.69-19.94-37.31-29.98-55.93
			c-1.13-2.09-2.38-5.3-5.34-3.81c-5.72,2.89-12.93,2.93-16.08,10.85c-2.68,6.73-7.54,14.73-15.42,14.41
			c-9.46-0.38-18.93,1.21-28.44-0.53c-10.44-1.91-18.4-8.1-27.04-13.35c-10.73-6.52-18.48-4.63-19.65,5.2
			c-2.16,18.13-7.12,35.55-11.78,53.06c-1.15,4.32-1.11,8.2,2.23,11.03c7.98,6.77,16,13.59,27.4,13.85
			C468.4,311.89,472.17,312.85,475.92,313.41z M553.54,440.85c4.88-0.59,9.75-1.33,14.64-1.75c8.1-0.69,9.62-5.58,7.73-12.25
			c-1.84-6.48-4.27-12.8-6.34-19.22c-4.32-13.34-5-13.67-18.14-12.5c-18.86,1.69-37.81,5.11-56.12-3.53
			c-3.8-1.79-8.46-1.68-12.44-3.19c-3.99-1.51-6.03-0.46-6.52,3.46c-1.44,11.6-2.73,23.21-4.02,34.83
			c-0.56,5.11,1.49,7.05,6.93,6.86c8.58-0.31,17.26-0.22,25.79,0.72c7.16,0.79,11.57,0.13,10.44-8.65
			c-0.37-2.84-0.64-6.75,3.87-6.99c3.21-0.18,5.78,0.91,6.72,4.83C529.58,438.05,540.32,441.33,553.54,440.85z M548.15,157.98
			c-12.27,0.34-22.24,5.84-33.21,5.32c-1.93-0.09-5.07-0.94-4.92,2.28c0.12,2.48,2.93,2.6,5.16,2.76
			c10.42,0.78,20.83,1.47,31.1,3.87c3.55,0.83,9.6,2.67,9.5-4.63C555.69,162.1,554.56,156.65,548.15,157.98z M576.05,144.68
			c-0.07-0.86,0.12-3.73-0.65-6.32c-0.98-3.32-0.87-8.45-5.28-8.69c-4.75-0.26-5.53,4.75-7.19,8.34
			c-4.32,9.36,1.66,17.74,2.61,26.54c0.42,3.85,4.18,2.15,5.98-0.49C575.11,158.79,576.15,152.82,576.05,144.68z M577.97,516.6
			c4.76-0.54,9.01-1.2,13.27-1.42c2.65-0.14,6.1,1.35,6.65-2.64c0.58-4.18-2.55-5.71-6.17-6.52c-9.17-2.06-18.28,1.3-27.45,0.27
			c-1.37-0.15-2.92,1.02-3.3,2.73c-0.46,2.07,0.45,3.51,2.3,4.47C568.06,515.96,573.39,515.84,577.97,516.6z M432.25,169.31
			c2.72-12.97,0.91-23.45-3.89-33.61c-0.67-1.42-1.41-2.96-3.1-3.02c-2.37-0.09-2.62,1.95-3.16,3.71
			C418.28,148.83,422.13,159.02,432.25,169.31z M459.06,65.18c-18.59,5.02-37.04,46.49-29.03,61.36
			c2.62-11.14,2.85-22.36,7.88-32.09C443.05,84.5,449.56,75.34,459.06,65.18z M478.21,509.46c4.34-2.82,14.55,1.01,14.46-4.19
			c-0.1-5.65-9.92-2.53-15.2-4.46c-3.22-1.17-5.38,0.58-5.28,4.23C472.29,508.48,474.14,510.03,478.21,509.46z M492.08,172.49
			c2.37-0.27,5.33-0.4,4.63-3.23c-1.04-4.2-5.56-2.71-8.49-3.8c-2.38-0.88-3.57,0.78-3.1,2.87
			C485.96,172.11,489.39,172,492.08,172.49z"/>
	</g>
	<path d="M300.2,391.92c-4.36,3.35,0.39,10.75-4.82,12.94c-4.34,1.82-9.56,1.7-14.42,2.07c-11.01,0.84-12.79,8.1-12.2,17.08
		c1.1,16.63,3.25,33.04,9.45,48.7c2.83,7.13-0.56,10.13-8.82,10.83c-4.85,0.41-9,4.84-14.32,5.62c-5.16,0.76-10.32,5.46-15.37,0.35
		c-3.03-3.07-3.86-7.37-1.84-11.18c3.19-6.01,9.32-6.35,15.27-6.57c1.23-0.05,2.67,0.33,3.66-0.18c4.24-2.17,9.78,5.03,12.23-0.43
		c1.56-3.47-0.84-8.91-1.95-13.34c-3.4-13.55-5.45-27.2-3.82-41.18c0.48-4.13-0.66-5.83-5.06-4.6c-2.04,0.57-4.28,0.62-6.42,0.58
		c-11.7-0.24-14.88-2.58-14.25-14.04c0.9-16.38-1.9-32.56,2.21-49.38c2.68-10.95-0.49-24.18,0.83-36.39
		c1.09-10.08,2.26-20.15,3.36-30.23c0.23-2.1,0.92-4.98-1.82-5.46c-2.82-0.49-2.84,2.59-3.38,4.54c-4,14.53-6.85,29.32-9.01,44.22
		c-0.46,3.17-0.44,7.41-4.11,6.75c-3.38-0.61-6.15-4.59-4.49-8.76c5.4-13.53,5.79-28.33,10.87-41.9c1.68-4.47,2.43-7-3.93-8.23
		c-8.2-1.59-14.94-7.03-22.17-11.11c-7.45-4.2-4.39-10.84-3.75-16.47c2.55-22.41,12-43.15,16.4-65.13c0.51-2.52,1.76-3.89,4.37-3.63
		c10.66,1.05,21.33,1.07,32.01,0.6c4.37-0.19,7.23,3.18,10.76,4.91c17.5,8.6,30.72,4.55,40.02-12.68c1.13-2.1,2.21-3.6,4.72-3.57
		c12.55,0.11,25.15-2.47,37.61,1.41c9.28,2.89,10.84,11.38,13.46,18.61c6.3,17.4,16.2,33.04,23.44,49.96
		c2.61,6.12,6.09,10.31-4.48,12.72c-11.36,2.59-10.6,3.7-6.83,14.71c5.58,16.27,10.93,32.62,17.83,48.4
		c1.23,2.82,1.68,6.8-1.45,6.81c-3.6,0.01-7.61-3.51-8.08-7.35c-2.11-17.32-10.83-32.43-15.64-48.82c-0.72-2.45-0.49-6.07-4.7-5.46
		c-4.22,0.61-3.91,3.82-3.97,7.05c-0.5,25.71,2.67,50.93,9.83,75.63c1.38,4.76,3.55,9.32-2.89,12.59c-3.41,1.73-1.24,4.96-0.04,7.31
		c6.76,13.29,7.32,28.44,12.74,42.14c1.45,3.68,0.11,5.39-4.12,6.07c-13.63,2.18-27.16,4.6-41.07,4.47
		c-13.03-0.13-22.22-5.83-28.1-17.25C303.12,394.01,302.58,392.14,300.2,391.92z M337.99,346.59c0.01-0.15,0.02-0.3,0.04-0.44
		c3.38,0.19,6.76,0.5,10.15,0.56c12.75,0.24,14-0.85,10.68-12.8c-5.8-20.91-7.8-42.19-7.88-63.78c-0.02-5.21-0.33-10.6-7.26-11.93
		c-1.38-0.27-2.94-1.44-2.35-3.37c0.55-1.78,2.03-1.92,3.71-1.7c10.11,1.35,18.2-3.91,26.89-7.76c6.28-2.78,6.04-5.51,3.93-11.31
		c-6.09-16.76-18.17-30.73-22.24-48.29c-2.99-12.91-13.27-14.08-23.3-14.38c-7.74-0.24-16.37-0.7-22.08,6.68
		c-14.37,18.58-22.74,20.83-44.23,12.18c-9.53-3.83-18.95-7.32-29.91-5.95c-5.23,0.66-8.02,1.89-9.42,6.49
		c-5.74,18.8-12.95,37.23-14.74,57.06c-0.28,3.09-0.68,6.12,0.93,9.01c4.57,8.21,24.33,14.98,33.39,10.9
		c4.16-1.87,5.3,0.59,5.62,3.18c0.49,3.93,0.17,7.99-0.14,11.97c-1.17,14.71-2.96,29.39-3.6,44.13
		c-0.61,13.95-0.1,13.93,13.77,13.27c3.05-0.15,6.13,0,9.18,0.26C292.1,342.54,315.04,344.57,337.99,346.59z M265.73,346.4
		c-0.52,0.04-3.65,0.84-6.63,0.43c-10.66-1.47-13.49,4.44-15.36,13.59c-2.86,14.01,1.6,27.58,0.97,41.41
		c-0.21,4.7,4.7,4.44,7.87,3.97c8.77-1.31,17.42-4.05,26.21-4.54c10.85-0.61,13.67-7.63,15.53-16.06c0.67-3.02,0.47-6.62,4.4-7.12
		c4.6-0.59,5.02,3.48,6.32,6.56c5.42,12.86,14.04,21.75,29,21.51c9.79-0.15,19.57-0.98,29.33-1.74c6.55-0.5,5.96-5.39,4.9-9.62
		c-3.11-12.5-6.6-24.91-9.93-37.36c-0.76-2.83-1.74-5.14-5.41-5.1C324.57,352.65,296.57,347.6,265.73,346.4z M255.89,477.23
		c-4,0.41-8.43-0.67-10.81,3.6c-0.62,1.11-0.68,3.57,0.06,4.2c3.87,3.37,7.34-0.79,11.08-1.05c0.3-0.02,0.58-0.18,0.87-0.27
		c2.26-0.73,5.76-0.86,5.43-3.84C262.08,475.94,258.17,477.82,255.89,477.23z"/>
	<path d="M369.56,100.94c-0.94,9.92-4.62,19-16.59,22.65c-8.56,2.61-15.91,7.78-21.58,14.46c-12.16,14.32-27.13,23.85-45.05,29.02
		c-4.78,1.38-2.68,4.74-2.05,7.51c0.58,2.53,1.1,4.95-1.43,6.64c-1.44,0.97-3.12,0.49-4.24-0.59c-1.64-1.6-2.27-3.58-0.96-5.83
		c2.96-5.1,0.57-5.77-4.31-6.44c-19.8-2.73-35.33-13.36-48.23-28.03c-3.69-4.19-6.61-6.72-13.09-5.47
		c-11.95,2.3-17.76-7.19-22.74-15.52c-6.82-11.39-8.58-24.12-5.9-37.31c0.73-3.61,3.24-5.81,5.86-7.99
		c8.12-6.77,12.63-15.38,14.78-25.8c5.56-26.95,31.11-50.12,58.32-48.13c23.07,1.68,44.78,11.22,59.15,31.48
		c6.61,9.33,14.78,18.01,14.53,30.89c-0.07,3.49,1.76,8.54,7.72,4.48c0.94-0.64,3.01-0.16,4.34,0.36
		C358.74,71.56,370.02,88.67,369.56,100.94z M276.86,114.1c10.18,0.16,20.59,0.53,30.12-3.14c10.14-3.9,23.6-5.45,21.26-22.12
		c-0.36-2.58,2.19-5.61,3.49-8.39c1.19-2.56,2.11-5.01,1.03-7.95c-4.11-11.23-7.11-22.91-14-32.97
		c-10.08-14.73-22.47-24.37-41.85-24.03c-10.81,0.19-20.49,3.5-30.66,5.57c-6.92,1.4-11.52,5.55-14.96,11.33
		c-2.84,4.76-6.12,9.35-8.28,14.41c-6.04,14.19-13.17,27.92-5.6,44.47c4.11,8.99,5.93,19.66,4.31,29.73
		c-0.88,5.47,0.25,8.6,4.02,11.87c2.78,2.41,4.85,5.68,7.75,7.9c12.34,9.51,24.04,20.03,40.95,21.15
		c21.49,1.43,34.49-13.63,49.57-24.6c3.15-2.29,2.57-6.33-2.13-6.02c-11.73,0.76-24.31-6.68-35.19,3.37
		c-0.72,0.66-2.39,0.49-3.6,0.41c-8.34-0.58-16.27-3.03-24.08-5.72c-2.99-1.03-5.23-3.49-5.06-7.04c0.17-3.56,2.93-5.08,5.69-6.64
		C265.19,112.58,271.09,114.29,276.86,114.1z M212.98,110.47c3.35-12.03-5.51-19.58-10.12-28.62c-1.39-2.74-4.93-4.87-5.64-0.23
		c-1.69,11-6.42,22.37,1.26,33.1c3.18,4.44,5.95,11.68,11.93,9.74C216.15,122.61,212.42,115.19,212.98,110.47z M353.84,103.79
		c0.08-8.75-2.69-16.97-5.1-25.19c-1.13-3.87-3.91-7.3-7.44-1.63c-7.2,11.54-7.96,23.68-2.14,36c3.09,6.55,8.74,6.7,12.76,0.63
		C353.89,110.59,353.98,107.21,353.84,103.79z M266.67,7.5c-0.22-1.43-1.16-2.44-4.41-1.94c-17,2.63-33.55,5.03-43.29,22.98
		c-7.28,13.42-10.02,28.3-16.64,41.78c-1.71,3.49,0.66,6.03,3.74,7.21c2.51,0.95,3.44-1.33,2.89-3.15
		c-3.6-11.76,3.83-20.8,7.83-30.4c6.91-16.58,17.49-29.65,37.44-30.91c3.68-0.23,6.46-3.57,10.47-3.09
		C265.93,10.13,266.89,9.03,266.67,7.5z M324.92,126.76c3.07-1.41,9.2,1.18,9.87-4.85c0.88-7.99-8.04-13.5-15.58-10.31
		c-8.15,3.46-16.23,7.15-25.41,6.96c-2.22-0.05-5.83-1.44-5.94,2.08c-0.11,3.45,3.57,3.55,6.32,3.77
		C304.23,125.21,314.27,125.95,324.92,126.76z M272.38,119.26c-3,1.56-8.12-0.91-8.77,3.24c-0.72,4.59,4.86,3.28,7.54,4.75
		c1.84,1.01,3.98,1.65,6.06,2.05c2.5,0.47,5.92,2.14,7.04-1.4c0.85-2.71-1.18-5.4-3.9-6.54
		C277.85,120.33,275.09,119.95,272.38,119.26z"/>
	<path d="M342.69,459.81c-2.86-12.46-0.8-27.21-4.87-41.3c-0.8-2.77-2.21-6.73,2.51-7.26c3.7-0.42,3.69,3.03,4.21,5.86
		c2.22,12.13,3.81,24.3,3.99,36.65c0.08,5.84,0.81,9.76,8.38,5.45c7.62-4.33,16.07-3.3,24.18-0.37c4.06,1.47,6.86,4.34,7.59,8.59
		c0.86,5.06-3.78,5.78-6.8,7.48c-10.25,5.74-27.68,4.06-36.59-3.35C342.73,469.43,342.73,469.43,342.69,459.81z M367.94,462.57
		c-3.7,1.41-12.3-1.77-11.88,4.69c0.36,5.6,8.8,5.91,14.67,5.79c1.2-0.03,2.44-0.37,3.57-0.8c2.38-0.91,6.05-0.54,5.69-4.58
		c-0.34-3.86-3.46-4.68-6.62-5.06C371.87,462.42,370.32,462.57,367.94,462.57z"/>
	<g>
		<path class="st2" d="M93.54,205.21c3.25-2.7,7.44-2.52,10.45-1c10.3,5.25,21.31,4.99,32.3,5.69c2.9,0.19,5.77,0.92,7.53-1.67
			c2.31-3.39-0.65-5.72-2.6-7.96c-4.26-4.9-9.48-9.65-7.57-16.91c2.54-9.62,1.12-20.52,9.06-28.53c2.33-2.36,1.91-5.7,1.23-8.82
			c-4.53-21.03-20.09-35.96-37.38-41.81c-46.92-15.87-77.57,11.17-82.39,58.35c-0.35,3.42,1.29,6.03,3.02,9.12
			c6.66,11.87,12.83,24.54,9.45,38.58c-1.78,7.39-1.68,12.28,5.63,15.74c2.17,1.03,4.11,2.75,5.83,4.47
			c13.49,13.41,28.3,20.31,48.15,14.34c15.98-4.81,30.82-10.5,41.52-23.88c1.45-1.82,3.48-4.06,1.99-6.65
			c-1.37-2.37-3.98-1.08-5.93-0.83c-10.56,1.35-20.85,1.46-30.27-4.6c-2.37-1.53-4.12-0.86-6.44,1.05
			c-12.92,10.63-21.41,9.58-33.32,1.98c-4.3-2.75-8.42-5.92-7.06-11.76c1.44-6.17,6.87-7.46,12.18-8.12
			c3.02-0.38,6.4-0.76,9.15,0.21c4.92,1.73,9.7,1.12,14.57,0.74c9.24-0.72,18.33-2.26,27.14-5.25c2.45-0.83,5.11-1.33,5.94,2.08
			c0.88,3.59-1.64,3.78-4.35,4.11c-7.33,0.88-14.59,2.46-21.93,2.98c-6.16,0.44-6.97,3.59-5.9,8.47
			c-7.11-9.36-18.04-6.74-27.39-7.88c-5.06-0.62-6.12,5.24-1.93,9.13C72.78,214.56,85.21,213.97,93.54,205.21z"/>
		<path class="st3" d="M141.67,192.56c0.74,0.75,9.74,10.1,6.89,15.32c-0.83,1.52-2.46,2.31-5.36,3.06
			c-19.4,5.03-35.23-3.57-35.23-3.57c-3.04-1.65-5.27-3.33-8.68-3.06c-4.36,0.34-5.39,3.46-10.72,6.38c-1.2,0.66-9.2,4.9-17.87,2.55
			c-1.87-0.51-8.22-2.22-10.72-7.91c-0.24-0.54-2.44-5.74,0-8.94c1.99-2.6,5.86-2.3,14.08-1.98c8.41,0.33,16.44,0.49,19.62,0.45
			c5.41-0.07,30.3-3.46,39.67-7.13"/>
		<path d="M85.01,494.47c-0.69-9.27,0.65-17.2-0.97-25.24c-1.03-5.12-2.14-8.2-7.89-7.4c-0.3,0.04-0.62,0.01-0.92-0.01
			c-20.84-1.8-21.23-2.43-18.73-23.68c1.04-8.86,1.42-17.79,2.15-26.68c0.16-1.95-0.12-3.73-1.57-5.09
			c-12.06-11.32-11.58-26.61-12.04-41.08c-0.47-14.57,0.07-15.07-14.26-18.46c-1.5-0.35-3.05-0.5-4.54-0.88
			c-12.8-3.3-15.53-7.73-11.83-20.75c4.88-17.2,7.95-34.77,11.32-52.28c0.41-2.1-0.01-4.42,0.64-6.41c1.11-3.41-4.95-6.61-1.11-9
			c3.72-2.32,8.72-3.45,13.19-3.55c12.27-0.26,23.57,2.65,33.34,11.01c8.73,7.46,18.8,11.75,30.76,7.97
			c2.87-0.91,5.06-1.86,4.97-5.49c-0.25-9.12,5.03-13.12,13.47-14.07c1.2-0.13,2.35-0.69,3.55-0.93
			c23.85-4.73,22.28-2.91,30.97,12.87c7.44,13.51,17.89,24.92,25.67,38.28c7.11,12.2,8.58,13.21-2.14,23.18
			c-5.62,5.22-5.93,9.33-3.05,15.83c7.11,16.03,13.57,32.35,20.18,48.6c1.15,2.83,4.71,6.93-0.08,8.45c-3.3,1.05-7.11-2.68-7.6-6.56
			c-2.06-16.18-11.21-29.69-16.52-44.63c-1.51-4.25-1.51-11.79-8.61-10.64c-8.32,1.34-4.74,8.21-4.55,13.47
			c0.5,13.54,1.52,26.99,3.68,40.4c2.7,16.77,8.47,32.59,13.78,48.57c3.79,11.38,2.72,13.5-8.54,16.11
			c-4.79,1.11-9.61,3.14-14.39,3.04c-6.79-0.14-7.59,2.42-6.65,8.31c2.61,16.38,4.85,32.83,6.89,49.29
			c0.67,5.42,1.78,7.56,7.28,3.95c9.2-6.04,19.19-5.64,29.18-2.23c6.37,2.17,7.11,6.19,2.28,10.88
			c-11.75,11.41-27.73,13.93-42.57,6.94c-3.88-1.83-6.6-5.08-5.24-8.65c3.87-10.17,1.17-20.09,0.04-30.04
			c-1.18-10.38-3.28-20.65-4.86-30.99c-0.65-4.25-2.1-7-7.17-5.79c-5.97,1.43-10.86-0.04-13.97-5.78c-0.69-1.27-1.52-2.94-3.38-2.42
			c-1.71,0.49-2.13,2.24-2.12,3.76c0.02,8.1-4.04,7.66-10.16,5.73c-11.88-3.73-13.46-1.97-12.27,10.33
			c0.71,7.35,0.89,14.79,0.71,22.17c-0.26,10.42,1.87,20.13,6.83,29.29c2.12,3.9,2.55,8.5-3.49,6.88
			c-12.6-3.38-24.38,1.78-36.56,2.26c-7.64,0.31-8.62-1.9-7.37-8.1c2.42-12.03,6.78-15.06,19.57-13.41
			c14.58,1.87,14.58,1.87,14.7-13.1C85.02,496.85,85.01,495,85.01,494.47z M145.96,327.14c14.89,6.74,23.03-0.83,30.28-10.48
			c2.71-3.61,2.46-7.01,0.29-11.08c-8.99-16.87-21.84-31.17-31.35-47.7c-3.45-6.01-25.99-5.66-29.65-0.11
			c-0.47,0.71-0.8,1.87-0.56,2.61c3.63,11.16-5.08,12.87-12.07,15.33c-14.65,5.17-26.8-2.01-37.27-10.32
			c-8.89-7.06-18.57-7.12-28.5-8.25c-2.59-0.29-3.9,0.97-4.14,3.68c-1.96,22.1-7.42,43.57-11.99,65.19
			c-1.25,5.9,0.12,10.33,6.99,11.61c3,0.56,5.9,1.74,8.76,2.87c3.24,1.28,5.77,1.74,7.25-2.51c1.8-5.16,5.96-1.88,8.41-1.2
			c3.97,1.11,2.07,3.95,0.58,6.55c-1.19,2.07-2.35,4.7-2.14,6.95c1.24,13.39-0.09,27.05,4.64,40.12c1.57,4.35,3.42,6.4,8.26,6.9
			c8.85,0.92,17.55,3.39,26.4,4.15c16.52,1.41,33.24,3.39,49.6-0.65c15.17-3.75,17.77-2.22,14.18-19.85
			c-0.48-2.38,0.11-4.99-0.38-7.36C150.47,358.74,154.96,342.85,145.96,327.14z M75.49,417.71c-3.73-3.93-4.19-9.49-8.48-8.69
			c-4.66,0.88-2.92,6.2-3.25,9.43c-0.94,9.17-1.02,18.43-1.49,27.66c-0.3,5.89,1.41,9.35,8.35,8.93c8.86-0.54,17.81,0.15,26.63,0.49
			c7.62,0.3,9.95-2.16,10.62-8.68c0.27-2.62-0.51-6.13,2.91-7.07c4.06-1.12,4.7,3.03,6.6,5.21c3.98,4.58,7.27,10.87,14.46,10.09
			c10.93-1.19,22.01-0.76,32.82-4.04c5.87-1.78,6.9-5,5.21-9.46c-3.81-10.09-6.38-20.47-8.41-31.01c-0.89-4.62-2.95-6.29-7.74-4.4
			c-22.65,8.92-46.05,5.37-69.24,3.45C78.54,409.12,73.11,406.8,75.49,417.71z M177.34,521.61c-5.92-0.06-11.44,1.47-16.66,4.34
			c-2.23,1.23-4.47,2.38-3.94,5.43c0.56,3.19,3.14,3.16,5.66,3.41c6.01,0.59,11.64-0.76,16.9-3.44c2.8-1.43,7.37-2.13,6.58-6.49
			C185.02,520.06,180.3,522.66,177.34,521.61z M62.64,527.42c6.69-0.63,13.39-1.2,20.07-1.94c1.07-0.12,2.36-0.76,3-1.58
			c0.91-1.17-0.14-2.21-1.05-3.05c-3.05-2.79-20.69-4.33-23.98-2.03c-2.1,1.47-3.79,3.38-3.09,6.13
			C58.22,527.47,60.3,528.01,62.64,527.42z"/>
		<path d="M174.44,178.42c-1.02,6.59,1.45,13.59-1.61,20.01c-2.05,4.3-5.5,8.38-9.82,9.28c-9.68,2.02-14.53,8.69-19.8,16
			c-11,15.26-26.98,22.77-45.1,25.58c-6.26,0.97-7.85,2.3-4.06,7.82c1.14,1.66,1.62,4.05,1.68,6.13c0.06,2.34-0.1,5.39-3.59,5.24
			c-2.63-0.11-3.58-2.39-3.35-4.68c1.02-10.26-3.53-13.16-13.13-10.81c-6.77,1.66-11.77-3.12-16.72-6.48
			c-7.08-4.8-14.12-9.73-20.05-16.1c-2.92-3.14-5.75-5.98-11.66-5.42c-5.96,0.56-10.82-5.04-15.33-9.28
			c-15.03-14.1-16.03-39.62-1.71-54.52c2.59-2.69,2.66-5.13,2.63-8.22c-0.22-24.34,12.17-41.58,30.89-55.5
			c8.47-6.3,17.04-11.57,27.64-14.01c16.95-3.9,30.33-0.63,43.42,11.94c13.1,12.57,24.68,26.29,36.96,39.48
			c5.29,5.68,12.47,9.45,17.06,16.28C174.46,159.6,174.71,168.85,174.44,178.42z M93.54,205.21c3.25-2.7,7.44-2.52,10.45-1
			c10.3,5.25,21.31,4.99,32.3,5.69c2.9,0.19,5.77,0.92,7.53-1.67c2.31-3.39-0.65-5.72-2.6-7.96c-4.26-4.9-9.48-9.65-7.57-16.91
			c2.54-9.62,1.12-20.52,9.06-28.53c2.33-2.36,1.91-5.7,1.23-8.82c-4.53-21.03-20.09-35.96-37.38-41.81
			c-46.92-15.87-77.57,11.17-82.39,58.35c-0.35,3.42,1.29,6.03,3.02,9.12c6.66,11.87,12.83,24.54,9.45,38.58
			c-1.78,7.39-1.68,12.28,5.63,15.74c2.17,1.03,4.11,2.75,5.83,4.47c13.49,13.41,28.3,20.31,48.15,14.34
			c15.98-4.81,30.82-10.5,41.52-23.88c1.45-1.82,3.48-4.06,1.99-6.65c-1.37-2.37-3.98-1.08-5.93-0.83
			c-10.56,1.35-20.85,1.46-30.27-4.6c-2.37-1.53-4.12-0.86-6.44,1.05c-12.92,10.63-21.41,9.58-33.32,1.98
			c-4.3-2.74-8.42-5.92-7.06-11.76c1.44-6.17,6.87-7.46,12.18-8.12c3.02-0.38,6.4-0.76,9.15,0.21c4.92,1.73,9.7,1.12,14.57,0.74
			c9.24-0.72,20.4-3.58,29.37-6.05c7.84-2.16,7.93-1.71,17.87-4.04c7.65-1.79-3.64,9.38-18.5,11.02
			c-7.34,0.81-14.59,2.46-21.93,2.98c-6.16,0.44-6.97,3.59-5.9,8.47c-7.11-9.36-18.04-6.74-27.39-7.88
			c-5.06-0.62-6.12,5.24-1.93,9.13C72.78,214.56,85.21,213.97,93.54,205.21z M169.18,177.47c-0.71-7.41,0.38-15.72-4.93-23.14
			c-3.95-5.51-8.38-4.58-11.35-0.73c-9.32,12.12-14.45,28.37-5.94,43.68c2.18,3.93,4.29,8.54,10.24,7.58
			c6.31-1.02,9.71-5.37,10.84-11.07C169.05,188.73,168.82,183.41,169.18,177.47z M13.16,167.25c-12.73,13.95-6.55,43.37,9.62,50.62
			c3.97,1.78,5.69,0.37,6.56-3.35c1.96-8.43,1.89-16.36-0.41-25.18C26.27,179.17,14.97,177.28,13.16,167.25z M86.57,94.5
			c3.68,0.28,7.36,0.51,11.03,0.84c1.58,0.14,3.22,0.35,3.73-1.58c0.58-2.21-0.82-3.46-2.7-4.09c-12.9-4.3-25.4-2.19-37.68,2.56
			c-1.75,0.67-3.35,2.04-2.58,4.22c0.87,2.48,2.87,1.61,4.62,1.05C70.67,95.05,78.51,93.89,86.57,94.5z M21.26,145.79
			c3.64-7.48,2.33-13.85,4.87-19.28C22.97,131.81,17.02,136.26,21.26,145.79z"/>
		<path d="M17.97,401.33c-3.65-0.93-6.17-2.16-4.63-6.95c4.96-15.44,9.54-31,14.45-46.45c0.76-2.38,1.26-6.51,4.85-5.46
			c4.23,1.23,2.06,4.73,1.27,7.67c-3.98,14.67-10.59,28.68-10.72,44.34C23.16,397.17,21.71,400.53,17.97,401.33z"/>
		<path d="M61.75,195.86c6.17-0.17,12.47-0.43,18.89-0.77c5.46-0.29,10.82-0.63,16.09-1.02"/>
	</g>
</g>
</svg>
