<?xml version="1.0" encoding="utf-8"?>
<!-- Generator: Adobe Illustrator 24.1.0, SVG Export Plug-In . SVG Version: 6.00 Build 0)  -->
<svg version="1.1" id="Layer_1" xmlns="http://www.w3.org/2000/svg" xmlns:xlink="http://www.w3.org/1999/xlink" x="0px" y="0px"
	 viewBox="0 0 582.98 475.45" style="enable-background:new 0 0 582.98 475.45;" xml:space="preserve">
<style type="text/css">
	.st0{fill:#E0AC69;}
	.st1{font-family:'MyriadPro-Regular';}
	.st2{font-size:12px;}
	.st3{fill:#8D5524;}
	.st4{fill:#DDBCDC;}
</style>
<path class="st0" d="M247.41,88.14c-8,16.24-19.79,31.35-17.09,51.62c0,2,2.95,12.66,3.08,16.14c0.91,24.51,23.57,42.09,47.31,46.51
	c29.66,5.53,50.78-2.51,64.28-32.24c7.32-16.11,6.84-31.34,3.64-47.33c-12.22-50.49-62.14-74.53-95.23-40.38"/>
<text transform="matrix(1 0 0 1 294.2973 238.4982)" class="st1 st2">8d5524</text>
<path class="st3" d="M422.26,31.44c-8,16.24-28.27,31.81-25.57,52.07c0,2,13.16,6.46,13.29,9.94c0.91,24.51,18.27,46.48,42.02,50.91
	c29.66,5.53,50.78-2.51,64.28-32.24c7.32-16.11,6.84-31.34,3.64-47.33c8.25-42.51-62.14-74.53-95.23-40.38"/>
<path class="st4" d="M117.97,198.3c-0.7,2.49-4.52,4.18-6.17,6.96c-4.39,7.41-23.93,2.14-31.86-2.1
	c-10.43-5.59-12.92-15.8-24.28-16.21c-5.92-0.21-34.89,16.49-36.63,22.22c-5.86,19.31-6.05,28.14-11.97,47.43
	c-0.68,2.2-2.33,20.93,0.27,22.52c6.81,4.14,30.73,5.4,36.75,12.45c2.97,3.47,5.86,2.91,5.58,8.87c-0.52,11.03,2.34,20.13,1.5,31.22
	c-0.33,4.35,0.24,13.35,5.4,12.61c23.91-3.41,54.84,4.63,78.98-0.38c8.37-1.74,25.85,5.83,24.3-0.53
	c-4.08-16.69-2.06-34.34-3.9-51.34c-0.73-6.7-3.02-19.61,3.9-18.31c11.5,2.15,32.9-0.45,29.72-11.38
	c-3.54-12.19-22.53-58.7-26.12-70.87c-3.45-11.71-28.52-3.3-44.48,6.26C118.77,197.83,118.54,197.96,117.97,198.3z"/>
<path class="st4" d="M515.28,162.34c-0.7,2.49-5.56,0.72-7.2,3.51c-4.39,7.41-28.87,14.08-36.8,9.83
	c-10.43-5.59-21.18-9.62-32.55-10.04c-5.92-0.21-14.48,4.79-16.21,10.51c-5.86,19.31-10.21,36.63-13.14,57.64
	c-0.68,2.2,3.63,6.66,6.23,8.24c6.81,4.14,12.77,8.22,21.93,6.77c6.13-0.97,8.4,4.16,8.11,10.12c-0.52,11.03,2.47,21.9,1.63,33
	c-0.33,4.35,4,14.18,9.17,13.44c23.91-3.41,49.72,0.69,73.85-4.32c8.37-1.74,4.83-7.81,6.6-14.11c4.51-16.02,1.85-26.53,0-43.53
	c-0.73-6.7,2.24,2.31,9.16,3.6c11.5,2.15,31.54-9.18,28.36-20.11c-3.54-12.19-18.69-35.26-22.28-47.43
	c-3.45-11.71-11.27-18.22-27.55-17.11C524.37,162.35,515.85,161.99,515.28,162.34z"/>
<path class="st4" d="M323.85,211.1c-0.7,2.49,1.14,5.41-0.51,8.19c-4.39,7.41-25.34,15.48-33.27,11.23
	c-10.43-5.59-21.24-6.57-32.61-6.98c-5.92-0.21-9.42,1.22-11.15,6.94c-5.86,19.31-11.83,38.58-17.75,57.87
	c-0.68,2.2-1.76,4.62,0.84,6.2c6.81,4.14,12.78,10.32,21.93,8.87c6.13-0.97,8.39,2.06,8.1,8.02c-0.52,11.03,2.47,21.9,1.63,33
	c-0.33,4.35,1.52,7.47,6.69,6.73c23.91-3.41,47.9,3.69,72.04-1.32c8.37-1.74,9.74-4.53,8.19-10.89c-4.08-16.69-5.42-33.7-7.26-50.7
	c-0.73-6.7-0.05-7.85,6.87-6.56c11.5,2.15,14.2-1.18,11.03-12.11c-3.54-12.19-7.68-24.2-11.27-36.38
	c-3.45-11.71-6.23-23.82-22.51-22.71C324.62,210.53,324.42,210.75,323.85,211.1z"/>
<g>
	<path d="M500.51,339.8c-4.13,5.48-2.37,9.85-1.74,14.38c0.6,4.31,2.83,11.64-6.63,6.61c-1.19-0.64-2.85-0.47-4.29-0.56
		c-12.56-0.83-11.56-1.07-8.65,10.78c2.67,10.9,2.85,22.4,4.14,33.64c0.56,4.9,1.21,9.79,1.69,14.69c0.21,2.11,0.42,4.59,2.45,5.22
		c2.35,0.73,5.91-0.07,4.34,4.01c-1.22,3.2-3.27,5.71-7.67,5.9c-10.16,0.44-20.06-2.77-30.35-1.47c-3.61,0.45-4.94-3.45-2.67-6.95
		c4.45-6.84,11.26-9.02,18.87-8.46c7.98,0.6,8.9-2.6,7.7-9.78c-2.42-14.49-2.55-29.29-5.34-43.8c-0.63-3.29-1.55-4.35-3.97-3.71
		c-8.4,2.22-16.93-3.24-25.63,1.52c-4.31,2.36-6.47-3.12-5.72-6.91c2.68-13.63,3.24-27.69,7.86-40.9c1.46-4.18,0.32-7.99,0.03-11.93
		c-1.09-15.04-2.8-30.04-3.34-45.09c-0.22-6.09-3.67-5.23-7.18-5.52c-5.57-0.45-3.25,3.85-3.17,6.04
		c0.49,14.01-1.99,27.82-2.69,41.74c-0.12,2.38,0.17,7.25-3.81,6.44c-3.73-0.75-4.04-4.65-2.99-8.55
		c3.33-12.41,3.74-25.19,3.94-37.96c0.11-7.04-2.77-11.71-9.68-14.77c-12.05-5.33-13.81-10.41-9.55-22.86
		c6.09-17.78,8.2-36.61,14.47-54.36c1.44-4.06,3.12-7.19,7.46-6.84c13.4,1.09,26.86,2.23,38.63,9.84c0.24,0.15,0.55,0.18,0.83,0.27
		c3.48,1.16,7.52,4.24,10.53,1.21c3.89-3.92-0.52-8.74-0.74-13.21c-0.22-4.43-4.74-3.29-7.71-3.56
		c-49.25-4.48-72.57-33.25-75.71-80.49c-1.97-29.67,19.55-59.48,52.66-65.27c3.85-0.67,5.93-2.41,8.6-5.71
		c3.96-4.89,11.41-3.63,17.1-1.85c36.36,11.34,51.74,38.43,56.85,74.27c1.91,13.41,1.03,25.93-2.61,38.51
		c-5.7,19.69-18.34,32.93-38.23,38.57c-3.3,0.94-5.73,1.64-5.01,5.36c0.85,4.44,0.47,9.41,4.17,12.81c0.51,0.47,2.69-0.49,3.85-1.19
		c2.99-1.8,5.65-4.23,8.8-5.62c2.41-1.07,4.04-7.13,7.41-2.59c2.73,3.68-1.38,5.7-4.02,8.07c-15.68,14.03-32,10.32-48.56,2.15
		c-2.6-1.28-5.17-2.13-8.14-2.64c-16.61-2.82-20.18-1.07-24.44,15.16c-3.66,13.98-5.82,28.32-10.43,42.09
		c-1.72,5.15,0.09,9.77,5.36,12.41c7.25,3.62,14.29,8.12,22.93,7.05c5.92-0.74,5.65,3.87,6.34,7.25
		c2.55,12.53,2.82,25.31,3.48,38.03c0.62,11.99,0.75,12.22,12.28,11.68c20.6-0.97,41.2-2.06,61.81-2.76
		c4.88-0.16,6.71-1.83,8.38-6.53c4.57-12.84,2.67-25.85,2.52-38.83c-0.05-4.8-7.09-8.29-2.6-14.13c1.5-1.95,2.82-4.76,4.83-1.32
		c3.69,6.31,8.61,4.54,14.15,3.76c5.68-0.8,10.24-4.03,15.54-5.46c5.04-1.36,6.06-4.29,4.26-9.26c-2.71-7.46-7.65-13.64-10.94-20.73
		c-3.51-7.57-6.67-15.32-10.04-22.93c-6.43-14.54-17.01-20.97-32.32-21.03c-1.44-0.01-14.5,7.23-15.75,7.91
		c-16.21,8.75,2.89-7.54,3.13-9.3c0.28-2.06-6.12-1.96,9.22-3.71c8.09-0.92,16.22,1.48,24.32,2.24c2.57,0.24,3.94,2.14,5.52,3.88
		c4.95,5.43,8.83,11.6,11.99,18.13c7.96,16.41,15.52,33.01,23.32,49.5c2.53,5.35,2.66,9.05-4.88,8.91
		c-1.67-0.03-3.37,0.79-5.02,1.33c-12.75,4.17-12.74,4.18-8.73,16.62c4.79,14.85,7.84,30.25,14.49,44.51
		c1.34,2.89,2.19,5.9,4.51,8.3c1.81,1.88,2.2,4.59-0.17,6.07c-2.76,1.73-4.31-0.98-5.3-2.94c-6.58-13-10.66-26.91-14.62-40.86
		c-1.66-5.86-3.99-11.57-5.15-17.51c-1.31-6.74-6.17-7.24-10.99-6.63c-5.37,0.68-2.89,5.45-2.86,8.47
		c0.11,12.42,2.8,24.93-1.71,37.18c-0.67,1.83-0.35,3.91,1.09,5.74c9.17,11.6,13,25.72,18.47,39.09c2.38,5.82,1,8.22-5.03,9.92
		c-12.49,3.52-11.96,3.77-9.8,17.72c2,12.9,2.89,25.96,4.38,38.95c0.65,5.64,1.77,10.61,9.38,6.05c2.12-1.27,5.01-1.45,7.59-1.75
		c12.01-1.37,15.09,1.51,17.22,15.83c1.31,8.75-3.88,15.13-13.57,16.69c-16.36,2.64-27.14-9.48-26.85-25.85
		c0.34-19.31-0.84-38.87-5.84-57.82c-0.81-3.07-2.33-6.9-6.4-5.6C515.73,359.41,506.12,354.17,500.51,339.8z M409.97,84.48
		c0,2-0.11,5.49,0.02,8.97c0.91,24.51,18.27,46.48,42.02,50.91c29.66,5.53,50.78-2.51,64.28-32.24c7.32-16.11,6.84-31.34,3.64-47.33
		c-5.75-28.76-27.38-54.53-62.27-51.81c-21.8,1.7-28.16,3.77-35.39,18.45C414.26,47.67,407.26,64.21,409.97,84.48z M505.02,305.67
		c-13.65-1.46-30.36,2.7-47.26,1.83c-2.33-0.12-4.89-0.31-5.65,2.72c-3.21,12.8-7.41,25.39-8.86,38.59
		c-0.35,3.23-0.16,5.33,4.43,5.26c10.71-0.14,21.46,0.19,32.14,0.99c7.74,0.58,11.42-1.36,12.13-9.99
		c0.45-5.52-3.51-14.88,3.02-16.11c6.08-1.15,8.98,8.44,13.18,13.38c2.41,2.84,3.95,6.77,8.55,6.49c9.54-0.57,19.08,0.57,28.65-1.45
		c6.94-1.47,8.01-4.55,5.66-10.37c-3.7-9.12-7.37-18.26-10.97-27.42c-1.06-2.68-2.38-3.6-5.68-3.87
		C525.63,305.02,516.97,305.71,505.02,305.67z M566.69,416.64c-11.02,0.15-16.96,4.12-16.92,11.09c0.04,5.84,7.83,11.87,15.03,11.62
		c7.45-0.26,11.68-4.27,11.14-11.39C575.5,422.17,574.89,415.88,566.69,416.64z M469.38,428.94c1.39,0.22,2.25,0.49,3.1,0.46
		c2.7-0.11,7.02,1.47,7.49-1.81c0.52-3.67-4.03-3.93-6.95-4.77c-0.53-0.15-1.16-0.11-1.72-0.02c-3.71,0.65-9.87-1.17-10.04,3.78
		C461.09,431.08,467.03,427.61,469.38,428.94z M403.89,61.15c-5.66,10.94-5.69,18.68,0.28,26.99
		C403.9,78.18,403.18,69.66,403.89,61.15z"/>
	<path d="M348.26,296.68c1.58,11.26,3.46,22.49,4.65,33.8c0.96,9.14,5.32,17.41,2.95,27.69c-1.47,6.38,4.54,14.48,7.18,21.81
		c1.18,3.26,3,6.48,3.31,9.82c0.35,3.83,0.94,8.86-6.42,5.69c-4.66-2-10.32-0.43-15.43-2.11c-2.61-0.86-4.79,0.62-3.42,3.89
		c4.89,11.63,6.06,24.05,8.45,36.26c1.49,7.64,8.74,3.09,13.45,3.53c1.52,0.14,3.14-1.6,4.78-1.75c2.8-0.27,6.23-0.76,7.27,2.91
		c0.95,3.32-2.39,3.81-4.18,5.54c-7.19,6.99-15.36,4.14-23.38,3.06c-3.8-0.51-4.39-3.43-4.1-6.51c1.14-12.12-1.73-23.73-5.28-35.04
		c-1.67-5.3-1.43-13.54-12.33-11.1c-4.87,1.09-6.26-7.4-10.39-11.41c-3.15,3.98-1.02,7.51-0.13,11.2c0.78,3.25,0.52,7.3-4.43,5.17
		c-9.46-4.07-19.41-3.23-29.14-3.41c-8.19-0.15-16.46-2.08-24.77,1.61c-5.06,2.24-7.21-1.68-4.55-6.21
		c6.2-10.55,9.03-24.12,5.79-33.39c-5.22-14.93-1.65-29.76-5.24-44.24c-1.8-7.27-7.52-4.46-11.13-5.51c-4.3-1.25-2.49,3.79-2.8,6.13
		c-1,7.48-1.59,15.02-2.55,22.51c-0.52,4.01-1.12,8.13-5.27,10.58c-4.11-3.26-4.15-7.03-2.42-11.61c3.5-9.26,5.11-18.82,3.64-28.8
		c-0.58-3.92-2.19-6.02-6.17-7.2c-6.04-1.79-7.31-5.42-5.1-11.94c7.04-20.82,14.9-41.44,19.45-63.01c0.96-4.57,2.9-6.55,7.24-6.96
		c9.73-0.92,19.46,1.91,29.4-1.12c2.85-0.87,7.47,4.47,11.43,6.67c2.93,1.63,6.52,4.63,9.45,1.69c3.54-3.54,2.26-8.78,1.55-13.28
		c-0.77-4.92-4.72-3.82-8.24-3.73c-28.07,0.69-53.21-18.39-60.83-45.04c-5.88-20.56-5.63-39.9,2.15-59.49
		c5.42-13.63,14.81-23.27,28.26-29.24c10.98-4.87,20.96-11.93,33.83-12.09c6.99-0.09,13.92,0.44,20.87,0.57
		c1.88,0.03,4.18,2.14,3.2,3.14c-5.67,5.79,1.14,6.21,3.38,8.36c21.89,21,35.21,46.1,34.35,76.91
		c-0.57,20.47-19.32,46.41-44.07,53.11c-2.54,0.69-7.03-0.23-7.19,3.38c-0.19,4.49,1.14,9.11,2.29,13.55
		c0.45,1.74,2.59,1.15,3.76,0.41c3.34-2.1,8.58-3.71,7.46-8.49c-1.55-6.61,1.46-5.92,6.14-6.31c5.69-0.48,11.45,1.5,17.17-1.1
		c3.44-1.57,6.1,0.54,6.71,4.54c3.56,23.04,13.98,44.05,19.84,66.44c1.82,6.96,1.76,10.11-6.31,9.24c-1.71-0.18-3.49,0.09-5.22,0.27
		c-2.26,0.24-5.03-0.08-5.97,2.59c-0.97,2.75,2.4,2.78,3.38,4.35c7.36,11.79,15.18,23.3,21.33,35.8c1.34,2.71,2.51,6.23-1.07,7.43
		c-3.23,1.09-3.58-3.02-4.73-5.09c-6.52-11.75-12.89-23.57-19.31-35.37C349.93,296.11,349.1,296.39,348.26,296.68z M324.42,211.1
		c-0.7,2.49,1.14,5.41-0.51,8.19c-4.39,7.41-25.34,15.48-33.27,11.23c-10.43-5.59-21.24-6.57-32.61-6.98
		c-5.92-0.21-9.42,1.22-11.15,6.94c-5.86,19.31-11.83,38.58-17.75,57.87c-0.68,2.2-1.76,4.62,0.84,6.2
		c6.81,4.14,12.78,10.32,21.93,8.87c6.13-0.97,8.39,2.06,8.1,8.02c-0.52,11.03,2.47,21.9,1.63,33c-0.33,4.35,1.52,7.47,6.69,6.73
		c23.91-3.41,47.9,3.69,72.04-1.32c8.37-1.74,9.74-4.53,8.19-10.89c-4.08-16.69-5.42-33.7-7.26-50.7c-0.73-6.7-0.05-7.85,6.87-6.56
		c11.5,2.15,14.2-1.18,11.03-12.11c-3.54-12.19-7.68-24.2-11.27-36.38c-3.45-11.71-6.23-23.82-22.51-22.71
		C325.19,210.53,324.99,210.75,324.42,211.1z M348.88,147.83c-0.92-26.35-10.54-49.28-28.87-67.97
		c-7.25-7.39-17.24-13.29-28.12-11.43c-11.97,2.04-23.12,7.89-33.17,14.65c-24.21,16.29-27.48,40.84-24.32,67.19
		c0.96,7.98,1.66,17.01,7.09,22.99c15.89,17.46,32.79,33.36,59.96,26.97C328.67,193.84,347.27,176.06,348.88,147.83z M285.35,355.58
		c-5.32,0.28-11.11,0.79-16.9,0.83c-3.74,0.03-4.97,1.25-4.97,5.13c0,7.2-0.45,14.42-1.22,21.58c-0.49,4.55,1.03,6.54,5.5,6.67
		c7.82,0.22,15.65,0.48,23.47,0.8c14.55,0.6,14.55,0.62,16.25-13.3c0.3-2.46-0.63-5.82,2.8-6.41c2.62-0.45,5.06,1.27,6.6,3.53
		c1.79,2.63,3.2,5.53,5.02,8.14c1.45,2.09,2.84,4.77,5.95,4.44c8.24-0.87,16.14,1.45,24.19,2.27c4,0.41,6.52-0.74,5.21-5.26
		c-2.26-7.77-4.6-15.52-7.23-23.17c-1.25-3.65-2.97-5.98-8.26-5.27C323.18,358.05,304.48,356.43,285.35,355.58z"/>
	<path d="M38.25,288.42c-0.25-0.29,3.71,0.27,4.01,0.51c4.57,3.7,10.65,8.53,10.76,11.39c0.48,11.89,0.65,23.78,1.08,35.67
		c0.09,2.58-1.08,5.91,4.05,5.73c25.83-0.87,51.59,1.49,77.39,2.16c19.45,0.51,19.76,0.79,19.59-18.15
		c-0.15-15.9-1.01-31.79-1.87-47.67c-0.25-4.71,1.06-5.69,5.83-5.82c7.48-0.19,15.01-1.52,22.36-3.09c4.77-1.02,9.69-3.69,5.46-9.66
		c-11.21-15.79-14.34-34.54-19.99-52.37c-5.69-17.97-7.39-18.85-26.41-17.31c-5.43,0.44-8.07,2.82-11.82,6.5
		c-9.9,9.71-21.46,16.82-36.73,11.89c-11.03-3.57-22.42-5.98-30.86-14.99c-3.38-3.61-6.88-4.38-11.96-0.57
		c-6.31,4.72-12.42,10.06-20.62,12.39c-5.93,1.68-8.24,8.28-9.44,13.89c-3.86,18.13-7.19,36.38-10.52,54.63
		c-0.87,4.79,10.88,11.01,16.45,8.86c0.47-0.18,0.95-1.31,1.1-1.25c6.13,2.63,13.18,4.27,17.89,8.51c2.16,1.95-3.26,4.59-6.36,3.16
		c-5.14-2.36-5.31,0.59-5.48,4.19c-0.54,11.59-2.27,23.02-5.22,34.23c-0.66,2.52-1.39,6.82-5,5.62c-2.89-0.96-4.3-4.69-2.47-8.12
		c5.51-10.32,4.71-21.99,7.2-32.95c1.06-4.67-0.88-7.42-5.39-8.18c-4.84-0.81-9.36-2.79-14.44-2.89c-5.38-0.11-8.22-2.48-6.14-8.94
		c3.9-12.14,5.96-24.69,7.85-37.35c2-13.43,1.43-28.45,14.09-37.99c10.39-7.83,23.62-10.94,33.38-20.2c3.04-2.89,8.37,0.77,9.09,4.1
		c2.94,13.67,15.17,14.25,24.62,17.45c15.09,5.11,26.9-0.35,36.5-13.57c4.43-6.1,13.73-4.52,21.12-4.37
		c3.73,0.08,7.13,0.98,10.89-1.14c5.17-2.92,6.11,2.24,7.87,5.32c8.01,14.03,11.48,29.66,15.41,45.06
		c2.79,10.93,9.59,19.72,14.34,29.58c2.34,4.85,6.25,7.97-3.6,8.97c-15.96,1.62-15.8,2.49-11.71,18.43
		c2.01,7.84,3.79,15.74,5.52,23.65c0.45,2.06,2.02,4.97-1.36,5.83c-2.96,0.75-4.11-2.17-4.65-4.22c-2.03-7.84-4-15.73-5.33-23.71
		c-0.74-4.44-2.99-8.1-4.45-12.15c-0.68-1.89-1.28-4.23-4-3.65c-2.44,0.52-4.02,2.13-4.22,4.86c-0.49,6.37-2.07,12.85-1.39,19.09
		c1.59,14.53,0.37,29.1,1.48,43.56c1.13,14.75,8.51,28.14,11.35,42.61c0.33,1.7,1.14,3.31,1.47,5.01c0.97,4.99-0.07,7.31-5.93,5.24
		c-5.45-1.92-11.23-2.9-16.86-4.33c-3.22-0.82-5.02,0.41-3.36,3.46c7.84,14.42,6.37,30.46,8.24,45.89c0.62,5.07,0.57,7.59,7,4.26
		c9.56-4.95,20.26-2.73,25.85,2.97c3.7,3.76,3.19,6.65-0.84,9.08c-5.47,3.29-10.94,6.81-16.85,9.05
		c-9.26,3.51-21.67-7.73-21.42-17.43c0.45-17.11-0.98-34.14-6.33-50.63c-1.71-5.26-4.47-7.73-10.16-5.93
		c-2.2,0.7-4.83,0.39-6.81,1.42c-10.05,5.26-14.65,0.22-17.61-8.71c-0.68-2.07-1.24-4.57-4.42-5.19c-1.79,2.23-1.17,4.62-0.54,7.12
		c2.25,8.91,2.02,9.01-7.48,8.11c-4.97-0.47-10.14-2.84-15.03,0.63c7.65,8.68,6.19,19.47,7.29,29.42
		c1.41,12.63,1.7,25.38,2.46,37.89c0.75,0.25,1.04,0.31,1.3,0.43c3.07,1.42,6.53-6.51,8.3-0.69c1.29,4.24-4.12,6.68-8.27,6.79
		c-8.54,0.24-16.64,2.45-24.58,5.05c-6.67,2.18-8.35-2.06-9.89-6.55c-1.72-5.02-3.27-10.36,3.4-13.28c4.62-2.02,9.5-2.78,14.52-1.94
		c5.11,0.85,7.89-0.55,7.09-6.39c-1.77-12.96-0.09-26.09-2.3-39.12c-2.02-11.88-4.03-13.96-15.7-10.98
		c-5.89,1.51-11.74,3.23-17.55,5.02c-1.67,0.51-2.94,3.83-4.92,1.14c-1.29-1.74-2.75-4.71-2.11-6.31
		c4.94-12.36,3.74-25.75,6.9-38.38c0.52-2.07,0.27-23.66,3.13-22.81c2.88,0.85,5.15,22.03,3.56,25.26
		c-4.39,8.91-2.96,18.8-4.7,28.16c-0.98,5.28,1.11,6.98,6.4,4.86c11.29-4.52,23.23-4.58,35.11-4.18c5.83,0.19,7.21-1.77,5.83-7.19
		c-1.13-4.46-1.55-9.1-2.13-13.69c-0.26-2.05-0.12-4.49,2.28-5.06c2.09-0.49,3.65,1.06,4.95,2.86c4.43,6.12,9.36,11.89,13.41,18.24
		c2.5,3.91,5.36,4.83,9.48,3.99c12.11-2.48,24.25-2.72,36.31,0.11c5.22,1.22,5.79-1.55,4.71-5.18c-2.88-9.71-4.71-19.7-8.32-29.25
		c-1.82-4.81-4.54-6.06-9.15-5.8c-27.04,1.52-53.94-1.92-80.93-2.28c-4.56-0.06-9.34-1-13.15,2.75c-3.67,3.61-6.27-0.35-6.31-2.31
		C48.44,329.12,50.92,302.78,38.25,288.42z M173.8,448.08c-2.34-0.02-5.82,0-8.95,1.74c-2.58,1.43-6.83,2.12-4.71,6.56
		c1.67,3.5,4.58,6.2,8.93,5.14c2.76-0.67,5.51-1.84,7.91-3.37c2.65-1.69,7.68-1.85,6.67-6.54
		C182.66,446.99,178.16,448.64,173.8,448.08z M75.13,458.36c-0.65,0.06-2.65,0.29-4.65,0.4c-4.84,0.27-6.9,2.95-5.78,7.47
		c1.15,4.62,4.57,4.37,8.26,3.03c2.97-1.08,6.02-1.96,9.04-2.89c2.22-0.68,6.04,0.97,6.06-2.95c0.02-3.65-3.71-3.97-6.4-4.7
		C80.03,458.28,78.23,458.49,75.13,458.36z"/>
	<path d="M165.35,117.3c2.24,23.47-11.9,37.17-29.31,48.51c-9.57,6.24-18.68,14.02-31.32,13.54c-3.31-0.13-4.45,2.24-4.33,5.26
		c0.07,1.74,0.35,3.48,0.36,5.21c0.01,3.6-0.45,8.04-4.75,7.81c-3.9-0.22-2.42-4.66-2.18-7.29c0.63-6.96-0.04-10.28-9.22-11.13
		c-21.68-2-42.4-9.01-57.14-25.97c-12.09-13.91-17.8-31.29-17.14-49.91c0.64-18.32,3.37-36.17,14.21-52.06
		c4-5.86,7.69-11.5,13.74-15.29c19.34-12.15,40.67-20.35,62.53-11.79c15.78,6.18,32,14.05,41.97,30.59
		c9.36,15.52,17.48,31.1,21.61,48.82C165.47,108.3,164.7,112.83,165.35,117.3z M96.58,174.15c2.06-0.26,5.55-0.45,8.94-1.15
		c13.16-2.71,23.78-10.29,34.46-17.9c9.82-7,15.17-16.24,16.8-28.17c1.72-12.59,0.95-24.89-3.73-36.61
		c-7.73-19.34-15.5-38.38-34.42-50.7c-25.96-16.91-51.74-17.19-78.64,3.43c-2.97,2.28-6.08,4.36-7.44,8.24
		c-11.68,33.32-11.3,65.09,10.4,94.97C56.01,164.26,73.31,173.04,96.58,174.15z M45.44,160.22c-7.35-7.92-13.99-16.48-20.98-24.75
		C26.06,148.08,35.47,154.38,45.44,160.22z"/>
	<path d="M271.78,400.02c14.96,0.85,14.55,12.21,15.63,21.35c1.16,9.8,1.58,19.51,5.92,28.67c1.56,3.29,0.29,5.78-4.22,6.34
		c-5.71,0.72-11.27,2.54-16.95,3.59c-3.28,0.6-6.63,4.27-10.02-0.54c-2.42-3.44-3.59-6.96-1.8-10.53c2.05-4.08,4.5-8.39,10.24-8.19
		c1.16,0.04,2.39-0.12,3.46,0.24c8.53,2.85,8.64-2.09,7.7-8.15c-0.31-2-0.45-4.04-0.54-6.06
		C280.78,416.98,281.92,406.73,271.78,400.02z M274.56,445.91c-3.82,0.42-6.86,1.98-7.7,5.83c-0.63,2.91,1.63,4.63,4.05,4.13
		c3.68-0.75,8.81-0.66,9.71-5.29C281.33,446.98,276.81,447.23,274.56,445.91z"/>
</g>
</svg>
